<?xml version="1.0" encoding="utf-8"?>
<!-- Generator: Adobe Illustrator 25.4.1, SVG Export Plug-In . SVG Version: 6.00 Build 0)  -->
<svg version="1.1" id="Layer_1" xmlns="http://www.w3.org/2000/svg" xmlns:xlink="http://www.w3.org/1999/xlink" x="0px" y="0px"
	 viewBox="0 0 300 300" style="enable-background:new 0 0 300 300;" xml:space="preserve">
<style type="text/css">
	.st0{fill:#6C004F;}
	.st1{fill:#FDB126;}
	.st2{fill:#FF7D1A;}
	.st3{fill:#F24655;}
	.st4{fill:#9FC74F;}
</style>
<g>
	<g>
		<path class="st0" d="M235.6,153.6l-0.4-1.6l-0.2-0.8l-0.2-0.8c-0.3-1.1-0.7-2.1-1-3.2c-0.8-2.1-1.5-4.2-2.3-6.2
			c-1.7-4.1-3.6-8-5.8-11.7c-1.5-2.8-3.4-5.6-5.3-8.5c-0.5-0.7-1-1.4-1.6-2.1c-0.5-0.7-1-1.4-1.6-2.1c-1.1-1.4-2.2-2.8-3.5-4.1
			c-0.6-0.7-1.2-1.3-1.8-2c-0.6-0.6-1.3-1.3-1.9-1.9c-0.3-0.3-0.6-0.6-0.9-0.9c-0.3-0.3-0.6-0.6-1-0.9c-0.6-0.6-1.3-1.2-1.9-1.8
			c-0.6-0.6-1.3-1.1-2-1.6c-0.7-0.5-1.3-1.1-2-1.6c-0.7-0.5-1.3-1-2-1.4c-0.3-0.2-0.6-0.5-1-0.7c-0.3-0.2-0.7-0.4-1-0.6
			c0.1,0.7-1.3,0.1-3.6-0.8c-0.6-0.2-1.2-0.5-1.8-0.8c-0.7-0.3-1.3-0.6-2.1-0.9c-1.4-0.5-2.9-1.2-4.5-1.7c-0.8-0.3-1.5-0.5-2.2-0.7
			c-0.2,0-0.3-0.1-0.5-0.1c-24.2-10.3-52.9-9-76.8,6.3c-9.3,5.9-17,13.5-23,22c0,0,0,0,0,0c-0.2-0.3-0.7-0.3-3,2.7
			c2.9-4.5,4.6-6.6,8.2-10.7c0-0.2-0.7,0.5-1.7,1.6c-0.5,0.6-1,1.2-1.6,2c-0.6,0.7-1.2,1.5-1.7,2.2c-0.5,0.8-1.1,1.5-1.6,2.2
			c-0.5,0.7-0.9,1.3-1.2,1.7c-0.6,0.9-0.9,1.1-0.6,0.2c3-4.3,6.4-9.1,10.2-12.9c-0.5,0.2-1.5,1.1-2.8,2.5c-0.3,0.3-0.7,0.7-1,1.1
			c-0.4,0.4-0.7,0.8-1,1.2c-0.7,0.8-1.4,1.7-2.1,2.5c-2.7,3.5-4.9,6.9-4.9,6.3c0.4-0.6,1.1-1.7,2.1-3c0.5-0.6,1-1.3,1.6-2
			c0.6-0.7,1.1-1.4,1.7-2.1c1.2-1.4,2.3-2.7,3.2-3.7c0.9-1,1.5-1.8,1.5-2.2c0-0.1-0.9,0.8-2.1,2.1c-0.3,0.3-0.6,0.6-0.9,1
			c-0.3,0.3-0.6,0.7-0.9,1.1c-0.6,0.7-1.1,1.4-1.5,1.9c0.6-0.8,1.3-1.7,1.9-2.4c0.6-0.8,1.2-1.5,1.8-2.2c1.2-1.4,2.3-2.7,3.3-3.8
			c0.3-0.3,0.5-0.6,0.7-0.8c0.2-0.3,0.5-0.5,0.7-0.7c0.5-0.5,0.9-0.9,1.3-1.3c0.4-0.4,0.7-0.8,1-1.1c0.3-0.3,0.6-0.6,0.8-0.8
			c0.9-0.9,0.9-1.3,0-0.8c-1,0.5-2.9,1.9-5.9,4.5c1.9-1.9,4.5-4.1,7.1-6.1c1.3-1,2.7-2,4-2.9c1.3-0.9,2.7-1.8,3.8-2.6c0,0,0,0,0,0
			c-0.6,0.4-1.3,0.9-2.1,1.4c-0.8,0.5-1.6,1-2.4,1.6c-0.6,0.5-1.3,0.9-1.9,1.3c1.9-1.4,3.8-2.8,5.7-4.1c-0.5,0.2-1.1,0.4-1.6,0.7
			c-0.5,0.3-1.1,0.6-1.6,1c-0.5,0.3-1,0.7-1.5,1.1c-1,0.7-2.1,1.4-3.1,2.3c0.8-0.7,1.7-1.3,2.6-2c0.9-0.7,1.8-1.3,2.7-1.9
			c-0.4,0.2-0.8,0.3-1.2,0.6c-0.4,0.2-0.8,0.4-1.2,0.7c-0.8,0.5-1.7,0.9-2.6,1.5c-0.8,0.6-1.6,1.1-2.4,1.7c-0.4,0.3-0.8,0.6-1.2,0.8
			c-0.4,0.3-0.8,0.6-1.1,0.9c-0.8,0.6-1.5,1.2-2.2,1.7c-0.7,0.6-1.4,1.2-2,1.7c-0.6,0.6-1.3,1.1-1.9,1.7c-0.6,0.6-1.1,1.1-1.6,1.6
			c-1.1,1-1.9,2-2.6,2.9c-1.4,1.7-2.7,3.5-4,5.2c-1.2,1.8-2.5,3.6-3.6,5.5c-1.2,1.9-2.2,3.8-3.2,5.8c-0.9,2-1.9,4-2.7,6l-0.6,1.5
			c-0.2,0.5-0.4,1-0.6,1.6c-0.4,1-0.8,2.1-1.1,3.1l-1,3.2c-0.3,1.1-0.6,2.1-0.8,3.2c-1,4.3-1.9,8.6-2.2,13.1
			c-0.9,8.8-0.4,17.7,1.4,26.4c1.8,8.7,4.8,17.1,9.1,24.9c0.3-0.1-0.3-1.9,1.2,0.6c0.6,1,1.2,1.9,1.8,2.9c0.3,0.5,0.6,0.9,0.8,1.4
			c0.3,0.5,0.6,0.9,0.9,1.3c0.6,0.9,1.1,1.8,1.7,2.7c0.6,0.9,1.2,1.7,1.8,2.6l0.9,1.3c0.3,0.4,0.6,0.8,0.9,1.2
			c0.6,0.8,1.3,1.7,2,2.5c1.4,1.6,2.9,3.3,4.6,4.8c0.3,0,0.6,0.1,0.8,0.1c4.9,5.1,10.7,9.8,17.2,13.8c6.1,3.5,12.6,6.1,19.2,8.1
			c6.7,1.9,13.5,3.1,20.4,3.4c-0.3-0.2-0.5-0.4,0.9-0.4c0.7,0,1.5,0,2.2,0.1c0.8,0,1.6,0,2.4,0c1.7,0,3.4-0.1,5.3-0.1
			c0.9,0,1.9-0.1,2.8-0.2c1-0.1,1.9-0.1,2.9-0.3c2-0.3,4-0.5,6-0.9c0.6-0.1,1.2-0.3,1.8-0.4c0.6-0.1,1.2-0.3,1.7-0.5
			c0.9-0.3,1.1-0.6,1.2-0.7c1.8-0.4,3.5-0.9,5.1-1.4c0.8-0.2,1.6-0.5,2.3-0.7c0.8-0.3,1.5-0.5,2.2-0.7c9.3-3.8,17.9-9.1,25.4-15.8
			c3.8-3.3,7.3-7,10.4-10.9c3.1-4,5.9-8.2,8.4-12.7c4.8-8.9,8.2-18.8,9.7-29C238.2,174.6,237.9,164,235.6,153.6z"/>
	</g>
	<g>
		<g>
			<path class="st1" d="M296.9,187c0,0-72.8,36.4-79.7,39c-6.9,2.6-16.5,11.4-16.5,11.4s-58.9,18.1-80.6,23.3
				c-21.7,5.2-27.7-9.5-27.7-9.5L4.9,213c-4-1.7,0-4.3,0-4.3l14.7-6.9L80.3,171L183.4,213L80.3,161l-60.9,32.4c0,0-1.8-5-2-8.7
				c-0.3-6.4,1.3-15.3,1.3-15.3c0-0.9,0.4-1.8,1.2-2.2l134.4-85.4c0.8-0.5,1.9,0.2,1.7,1.1c-2.4,11.6-12.9,43.5-6.7,65.2
				c6.7,23.5,32.3,35.4,32.3,35.4c10.4-26.4,27-34.2,41.6-39.5c19.1-6.9,26.9-15.2,31-18c0.6-0.4,1.5,0.2,1.2,0.9
				c-1.1,3.6-4.5,11.3-14,18.9c-10,8-25.8,19.4-31.2,27.7c-9.8,15.1-9.5,22.7-9.5,22.7s7.2-8.3,26.1-20.9
				c20.3-13.5,37.2-20.9,40-21.9c0.3-0.1,0.7,0,0.9,0.2l21.1,27c0.5,0.5,0.2,1.3-0.4,1.4c-3.4,0.8-12.9,3.6-31,12
				c-27.2,12.6-32.2,17.6-32.2,17.6l68.6-27.1c0.3-0.1,0.7,0,0.9,0.2L296.9,187z"/>
		</g>
		<g>
			<path class="st1" d="M197.8,199c2.7-6.6,6.2-12.8,10.5-18.5c4.3-5.7,9.2-10.9,14.7-15.3c5.5-4.5,11.7-8.2,18-11.2
				c3.1-1.5,6.3-3.1,9.1-4.9c2.9-1.9,5.4-3.9,8.2-6.2c0.1-0.1,0.2-0.1,0.3,0c0,0.1,0.1,0.1,0,0.2c-1.4,3.4-4.3,5.9-7.3,7.9
				c-3,2-6.2,3.6-9.3,5.2c-6.2,3.1-12.1,6.7-17.4,11.2c-5.4,4.3-10.2,9.4-14.3,14.8c-2.1,2.7-4,5.6-5.8,8.6c-1.7,3-3.3,6.1-4.7,9.2
				l0,0c-0.3,0.6-0.9,0.8-1.5,0.5C197.8,200.2,197.6,199.6,197.8,199z"/>
		</g>
		<g>
			<path class="st2" d="M186.3,65.2c5-11.7,11.6-19.7,20.1-24.7c8.1-4.7,18.1-1.4,22.9,6.1c5.6,8.7,5.1,20.1,1.7,27.8
				c-6.1,13.9-18.3,17.1-38.6,46.8c-8.8,12.9-12.9,22.9-13.1,34.5c0,0.9-1.3,1-1.5,0.2c-2.4-11.1-4.2-29.4-3.2-42.2
				C176.3,91.8,179.8,80.5,186.3,65.2z"/>
		</g>
		<g>
			<path class="st3" d="M214.9,113.1c5-3.7,9.8-5.4,14.6-5.4c4.6,0,8,3.9,8.1,8.2c0.2,5.1-2.8,9.7-6.1,12.1
				c-6,4.3-11.9,2.7-27.8,10.2c-6.9,3.3-11.1,6.5-14.1,11.3c-0.2,0.4-0.8,0.1-0.7-0.3c1.7-5.3,5.5-13.4,9.1-18.6
				C204.1,121.8,208.3,117.9,214.9,113.1z"/>
		</g>
		<g>
			<path class="st4" d="M155.7,129.5c-0.9-3.2-0.9-6,0-8.4c0.9-2.3,5.3-4.2,7.9-2.1c3.1,2.6,1.6,9.6,2.4,19.1
				c0.4,4.1,1.5,8.6,3.4,11c0.1,0.2-0.1,0.4-0.3,0.3c-2.4-1.9-5.8-5.3-7.7-8.1C158.1,136.6,156.9,133.7,155.7,129.5z"/>
		</g>
		<g>
			<path class="st1" d="M167.3,158.7"/>
		</g>
	</g>
</g>
</svg>
