<?xml version="1.0" standalone="no"?>
<!DOCTYPE svg PUBLIC "-//W3C//DTD SVG 20010904//EN"
 "http://www.w3.org/TR/2001/REC-SVG-20010904/DTD/svg10.dtd">
<svg version="1.0" xmlns="http://www.w3.org/2000/svg"
 width="700.000000pt" height="700.000000pt" viewBox="0 0 700.000000 700.000000"
 preserveAspectRatio="xMidYMid meet">
<metadata>
Created by potrace 1.14, written by Peter Selinger 2001-2017
</metadata>
<g transform="translate(0.000000,700.000000) scale(0.100000,-0.100000)"
fill="#000000" stroke="none">
<path d="M4940 6099 c-185 -34 -411 -250 -548 -524 -79 -159 -182 -441 -226
-616 -16 -65 -28 -94 -37 -93 -8 1 -48 11 -89 22 -143 39 -267 60 -373 65
l-49 2 7 40 c4 22 9 52 11 68 8 43 -24 35 -141 -39 -94 -59 -113 -67 -178 -75
-128 -16 -240 -39 -342 -71 -55 -17 -105 -32 -111 -34 -6 -1 -48 -18 -94 -39
-312 -137 -568 -336 -770 -599 -29 -38 -120 -122 -120 -111 0 13 33 54 40 50
4 -3 7 3 6 13 0 9 5 16 12 14 8 -1 11 1 8 6 -7 11 11 37 26 37 8 0 13 11 12
28 -1 22 1 25 13 15 8 -6 13 -7 12 -2 -3 19 1 34 12 34 5 0 7 -6 3 -12 -4 -8
-3 -9 2 -5 5 5 9 16 9 25 0 9 6 16 13 14 8 -1 11 2 7 8 -3 6 1 17 10 26 10 11
13 20 7 26 -11 11 1 28 96 125 68 71 75 92 15 49 l-38 -27 35 31 c19 17 74 61
123 97 48 36 87 68 87 70 0 8 -106 -51 -182 -103 -134 -91 -265 -208 -333
-298 -17 -21 -35 -44 -40 -50 -52 -55 -205 -317 -248 -424 -14 -35 -32 -50
-129 -112 -362 -230 -475 -301 -488 -310 -31 -20 -219 -139 -320 -203 -58 -36
-110 -70 -116 -75 -6 -6 -24 -17 -41 -25 -16 -9 -35 -22 -41 -30 -18 -21 -43
-208 -44 -327 -1 -98 18 -222 41 -258 7 -12 89 26 241 112 25 14 54 30 65 35
11 5 112 58 225 118 113 61 257 137 321 171 l115 61 2 -72 c1 -40 4 -88 7
-107 l5 -35 -272 -139 c-425 -216 -845 -426 -851 -426 -3 0 -53 -23 -110 -50
-76 -37 -107 -58 -116 -77 -16 -34 1 -50 89 -87 36 -15 73 -31 82 -36 9 -5 59
-27 110 -49 87 -36 1161 -505 1259 -549 24 -11 91 -40 149 -65 185 -79 383
-166 385 -169 1 -2 11 -19 23 -39 25 -42 91 -105 143 -137 130 -80 308 -89
552 -27 147 37 167 38 257 18 56 -12 231 -31 260 -27 14 1 95 3 181 5 177 2
398 32 452 60 11 6 56 21 101 34 220 61 441 178 651 344 92 72 279 262 330
334 23 33 55 64 75 73 19 10 98 47 175 84 330 159 1553 764 1563 775 3 3 -7
18 -22 34 l-28 29 -62 -23 c-51 -19 -529 -208 -836 -330 -47 -18 -184 -73
-305 -120 -121 -48 -241 -96 -267 -106 l-47 -18 10 22 c22 47 426 256 884 457
112 49 292 116 405 151 41 12 80 27 87 33 9 8 -6 34 -60 102 -40 50 -117 149
-172 219 -105 135 -255 327 -262 334 -7 9 -78 -22 -248 -105 -166 -81 -222
-111 -374 -200 -41 -24 -76 -43 -77 -41 -1 1 -5 38 -9 82 -3 44 -8 92 -11 107
-3 21 1 29 23 41 211 107 328 175 388 228 47 41 95 106 95 128 0 10 -3 12 -8
5 -25 -37 -216 -164 -353 -234 l-158 -80 -14 62 c-17 71 -19 66 68 133 81 63
173 145 215 191 75 85 157 224 175 297 11 43 -14 34 -112 -41 -148 -115 -334
-230 -425 -265 -15 -5 -28 14 -73 105 -30 62 -55 115 -55 118 0 4 24 17 53 30
88 40 167 137 194 240 10 38 3 121 -12 154 -23 47 -75 93 -123 105 -86 24
-220 -11 -339 -86 -29 -18 -54 -33 -56 -33 -1 0 -51 48 -109 106 l-106 106 57
61 c31 34 122 129 204 211 264 265 321 346 369 516 22 76 31 258 17 325 -53
250 -201 402 -409 418 -25 2 -65 0 -90 -4z m-3030 -1933 c0 -2 -8 -10 -17 -17
-16 -13 -17 -12 -4 4 13 16 21 21 21 13z m-30 -40 c0 -2 -8 -10 -17 -17 -16
-13 -17 -12 -4 4 13 16 21 21 21 13z"/>
</g>
</svg>
