<?xml version="1.0" encoding="utf-8"?>
<!-- Generator: Adobe Illustrator 25.4.1, SVG Export Plug-In . SVG Version: 6.00 Build 0)  -->
<svg version="1.1" id="Layer_1" xmlns="http://www.w3.org/2000/svg" xmlns:xlink="http://www.w3.org/1999/xlink" x="0px" y="0px"
	 viewBox="0 0 150 150" style="enable-background:new 0 0 150 150;" xml:space="preserve">
<style type="text/css">
	.st0{fill:#FFFFFF;}
</style>
<g id="Group_111" transform="translate(0 0)">
	<g id="Group_105" transform="translate(0 10.421)">
		<path id="Path_7654" class="st0" d="M147.8,83.1c0,0-36.1,18-39.5,19.3c-3,1.5-5.7,3.4-8.2,5.6c0,0-29.2,9-39.9,11.5
			c-10.7,2.6-13.7-4.7-13.7-4.7L3.1,96c-2-0.9,0-2.1,0-2.1l7.3-3.4l30.1-15.2L91.6,96L40.5,70.2L10.3,86.3c-0.5-1.4-0.8-2.8-1-4.3
			c0-2.5,0.2-5.1,0.7-7.6c0-0.5,0.2-0.9,0.6-1.1L77.2,31c0.3-0.2,0.6-0.1,0.8,0.2c0.1,0.1,0.1,0.3,0.1,0.4
			c-1.2,5.8-6.4,21.6-3.3,32.3c3.3,11.7,16,17.5,16,17.5c5.2-13.1,13.4-17,20.6-19.6c5.6-2,10.8-5,15.4-8.9c0.2-0.1,0.4-0.1,0.6,0.1
			c0.1,0.1,0.1,0.2,0.1,0.4c-1.3,3.7-3.7,7-6.9,9.3c-4.9,3.9-12.8,9.6-15.5,13.7c-4.9,7.5-4.7,11.2-4.7,11.2
			c3.9-4,8.2-7.4,12.9-10.3c6.3-4.2,12.9-7.9,19.8-10.9c0.2-0.1,0.3,0,0.5,0.1l10.4,13.4c0.2,0.2,0.2,0.4,0,0.6
			c-0.1,0.1-0.1,0.1-0.2,0.1c-5.3,1.5-10.4,3.5-15.4,6c-13.5,6.2-15.9,8.7-15.9,8.7l34-13.4c0.2-0.1,0.3,0,0.5,0.1L147.8,83.1z"/>
	</g>
	<g id="Group_106" transform="translate(46.886 25.188)">
		<path id="Path_7655" class="st0" d="M51.8,74.3c1.3-3.3,3.1-6.3,5.2-9.2C61.2,59.5,66.8,55,73.2,52c1.6-0.7,3.1-1.5,4.5-2.4
			c1.4-0.9,2.8-2,4.1-3.1c0,0,0.1,0,0.1,0c0,0,0,0.1,0,0.1c-0.8,1.6-2,3-3.6,3.9c-1.5,0.9-3,1.8-4.6,2.6c-3.1,1.5-6,3.4-8.6,5.5
			c-2.7,2.2-5,4.6-7.1,7.4c-1,1.4-2,2.8-2.9,4.2c-0.9,1.5-1.6,3-2.3,4.6l0,0c-0.1,0.3-0.5,0.4-0.7,0.2
			C51.9,74.8,51.7,74.6,51.8,74.3L51.8,74.3z"/>
	</g>
	<g id="Group_107" transform="translate(41.279)">
		<path id="Path_7656" class="st0" d="M51.8,33.2c1.9-5.1,5.4-9.4,10-12.2c4-2.2,9-0.9,11.4,3c2.5,4.2,2.8,9.3,0.9,13.8
			c-3,6.9-9.1,8.5-19.1,23.2c-4.4,6.4-6.4,11.4-6.5,17.1c0,0.2-0.2,0.4-0.4,0.4c-0.2,0-0.3-0.1-0.4-0.3c-1.4-6.9-1.9-13.9-1.6-20.9
			C46.4,48.9,48.3,40.7,51.8,33.2z"/>
	</g>
	<g id="Group_108" transform="translate(44.758 16.715)">
		<path id="Path_7657" class="st0" d="M62.4,40.2c2-1.7,4.6-2.6,7.2-2.7c2.2,0.1,4,1.9,4,4.1c0,2.4-1.1,4.6-3,6
			c-3,2.1-5.9,1.3-13.8,5c-2.8,1.1-5.3,3.1-7,5.6c-0.1,0.1-0.2,0.1-0.2,0.1c-0.1,0-0.1-0.1-0.1-0.2c1.1-3.2,2.6-6.3,4.5-9.2
			C56.3,45.5,59.1,42.5,62.4,40.2z"/>
	</g>
	<g id="Group_109" transform="translate(36.593 19.219)">
		<path id="Path_7658" class="st0" d="M41.3,45.8c-0.5-1.3-0.5-2.8,0-4.2c0.7-1.3,2.4-1.8,3.7-1.1c0.1,0,0.1,0.1,0.2,0.1
			c1.5,1.3,0.8,4.8,1.2,9.5c0.1,1.9,0.7,3.8,1.7,5.5c0,0,0,0.1,0,0.1c0,0-0.1,0-0.1,0c-1.4-1.2-2.7-2.5-3.8-4
			C42.8,49.9,41.8,47.9,41.3,45.8z"/>
	</g>
	<g id="Group_110" transform="translate(39.573 29.004)">
		<path id="Path_7659" class="st0" d="M44.1,50.5"/>
	</g>
</g>
</svg>
