<?xml version="1.0" encoding="utf-8"?>
<!-- Generator: Adobe Illustrator 25.4.1, SVG Export Plug-In . SVG Version: 6.00 Build 0)  -->
<svg version="1.1" id="Layer_1" xmlns="http://www.w3.org/2000/svg" xmlns:xlink="http://www.w3.org/1999/xlink" x="0px" y="0px"
	 viewBox="0 0 150 150" style="enable-background:new 0 0 150 150;" xml:space="preserve">
<style type="text/css">
	.st0{fill:#FFFFFF;}
</style>
<g id="logo" transform="translate(-59.585 -120.104)">
	<g id="Group_112" transform="translate(91.4 120.104)">
		<g id="Group_111" transform="translate(0 0)">
			<g id="Group_105" transform="translate(0 6.9)">
				<path id="Path_7654" class="st0" d="M74.6,45.4c0,0-15.6,7.8-17,8.3c-1.3,0.6-2.5,1.5-3.5,2.4c0,0-12.6,3.9-17.2,5s-5.9-2-5.9-2
					L12.2,51c-0.9-0.4,0-0.9,0-0.9l3.1-1.5l13-6.5l22,9l-22-11.1l-13,6.9c-0.2-0.6-0.4-1.2-0.4-1.9c0-1.1,0.1-2.2,0.3-3.3
					c0-0.2,0.1-0.4,0.3-0.5l28.7-18.2c0.1-0.1,0.3,0,0.3,0.1c0,0.1,0,0.1,0,0.2c-0.5,2.5-2.8,9.3-1.4,13.9c1.4,5,6.9,7.6,6.9,7.6
					c1.4-4.1,4.7-7.2,8.9-8.4c2.4-0.9,4.7-2.2,6.6-3.8c0.1-0.1,0.2,0,0.2,0c0,0,0,0.1,0,0.2c-0.6,1.6-1.6,3-3,4
					c-2.1,1.7-5.5,4.1-6.7,5.9c-2.1,3.2-2,4.8-2,4.8c1.7-1.7,3.5-3.2,5.6-4.5c2.7-1.8,5.6-3.4,8.5-4.7c0.1,0,0.1,0,0.2,0l4.5,5.8
					c0.1,0.1,0.1,0.2,0,0.3c0,0-0.1,0-0.1,0c-2.3,0.7-4.5,1.5-6.6,2.6c-5.8,2.7-6.9,3.8-6.9,3.8l14.7-5.8c0.1,0,0.1,0,0.2,0
					L74.6,45.4z"/>
			</g>
			<g id="Group_106" transform="translate(31.045 16.678)">
				<path id="Path_7655" class="st0" d="M22.4,38.2c0.6-1.4,1.3-2.7,2.2-4c1.8-2.4,4.2-4.4,7-5.7c0.7-0.3,1.3-0.7,2-1
					c0.6-0.4,1.2-0.9,1.7-1.3c0,0,0,0,0.1,0l0,0c0,0,0,0,0,0c-0.3,0.7-0.9,1.3-1.6,1.7c-0.6,0.4-1.3,0.8-2,1.1
					c-1.3,0.6-2.6,1.4-3.7,2.4c-1.1,0.9-2.2,2-3.1,3.2c-0.4,0.6-0.9,1.2-1.2,1.8c-0.4,0.6-0.7,1.3-1,2l0,0c-0.1,0.1-0.2,0.2-0.3,0.1
					C22.4,38.4,22.3,38.3,22.4,38.2L22.4,38.2z"/>
			</g>
			<g id="Group_107" transform="translate(27.332)">
				<path id="Path_7656" class="st0" d="M23.6,26.3c0.8-2.2,2.3-4,4.3-5.3c1.7-0.9,3.9-0.4,4.9,1.3c1.1,1.8,1.2,4,0.4,5.9
					c-1.3,3-3.9,3.7-8.2,10c-1.7,2.1-2.7,4.7-2.8,7.4c0,0.1-0.1,0.2-0.2,0.2c-0.1,0-0.1-0.1-0.1-0.1c-0.6-3-0.8-6-0.7-9
					C21.3,33,22.1,29.5,23.6,26.3z"/>
			</g>
			<g id="Group_108" transform="translate(29.635 11.068)">
				<path id="Path_7657" class="st0" d="M27.4,25.4c0.9-0.7,2-1.1,3.1-1.2c1,0,1.7,0.8,1.7,1.8c0,1-0.5,2-1.3,2.6
					c-1.3,0.9-2.6,0.6-5.9,2.2c-1.2,0.5-2.3,1.3-3,2.4c0,0-0.1,0-0.1,0c0,0,0,0,0-0.1c0.5-1.4,1.1-2.7,1.9-4
					C24.8,27.7,26,26.5,27.4,25.4z"/>
			</g>
			<g id="Group_109" transform="translate(24.229 12.725)">
				<path id="Path_7658" class="st0" d="M20.2,27.3c-0.2-0.6-0.2-1.2,0-1.8c0.3-0.6,1-0.8,1.6-0.5c0,0,0.1,0,0.1,0.1
					c0.7,0.6,0.3,2.1,0.5,4.1c0,0.8,0.3,1.6,0.7,2.4c0,0,0,0,0,0.1c0,0,0,0-0.1,0c-0.6-0.5-1.2-1.1-1.6-1.7
					C20.8,29.1,20.4,28.2,20.2,27.3z"/>
			</g>
			<g id="Group_110" transform="translate(26.202 19.204)">
				<path id="Path_7659" class="st0" d="M20.7,27"/>
			</g>
		</g>
	</g>
	<g id="Group_114" transform="translate(93.919 160.944)">
		<g id="Group_113" transform="translate(0 0)">
			<path id="Path_7660" class="st0" d="M25.7,37.7c-0.1,0.3-0.2,0.6-0.3,1c-0.1,0.4-0.2,0.9-0.3,1.4c-0.1,0.5-0.2,1-0.4,1.5
				c-0.1,0.5-0.3,1.1-0.4,1.6c-0.1,0.5-0.3,1-0.4,1.5c-0.1,0.4-0.3,0.9-0.4,1.3c-0.1,0.3-0.2,0.5-0.4,0.7c-0.2,0.2-0.4,0.3-0.6,0.4
				c-0.2,0.1-0.5,0.1-0.7,0c-0.3-0.1-0.6-0.2-0.8-0.4c-0.5-0.4-1.1-0.8-1.6-1.3c-0.5-0.5-1.1-1-1.6-1.5c-0.5-0.5-1.1-1-1.6-1.5
				c-0.5-0.5-1-1-1.5-1.4c0.2,0.5,0.3,1,0.6,1.7c0.2,0.7,0.5,1.4,0.7,2.2c0.2,0.8,0.5,1.6,0.8,2.4c0.3,0.8,0.5,1.6,0.7,2.3
				c0.2,0.7,0.4,1.4,0.6,2c0.2,0.6,0.3,1.1,0.4,1.5c0.1,0.2,0,0.3-0.1,0.5c-0.1,0.1-0.2,0.2-0.4,0.3c-0.2,0.1-0.3,0.1-0.5,0
				c-0.2,0-0.3-0.1-0.3-0.3c-0.1-0.2-0.2-0.6-0.4-1.1L16.1,51c-0.2-0.6-0.4-1.3-0.7-2c-0.2-0.7-0.5-1.5-0.7-2.2
				c-0.2-0.7-0.5-1.5-0.7-2.2c-0.2-0.7-0.4-1.4-0.6-2c-0.2-0.6-0.4-1.1-0.5-1.6c-0.1-0.5-0.2-0.8-0.3-1c-0.1-0.5,0.1-1,0.5-1.2
				c0.2-0.1,0.5-0.1,0.7-0.1c0.3,0,0.5,0.2,0.8,0.3c0.7,0.5,1.3,1.1,1.9,1.7c0.5,0.6,1.1,1.1,1.6,1.6c0.5,0.5,1.1,1,1.7,1.6
				c0.7,0.5,1.3,1,2.1,1.5c0.2-0.2,0.3-0.4,0.4-0.6c0.1-0.3,0.3-0.8,0.4-1.5c0.2-0.7,0.4-1.6,0.7-2.7c0.3-1.1,0.6-2.4,1.1-4
				c0.1-0.4,0.3-0.7,0.6-1c0.2-0.2,0.5-0.3,0.8-0.3c0.3,0,0.6,0.1,0.8,0.3c0.3,0.2,0.4,0.5,0.5,0.9c0.1,0.4,0.2,0.9,0.4,1.6
				c0.1,0.7,0.3,1.5,0.5,2.4c0.2,0.9,0.3,1.8,0.5,2.8c0.2,1,0.3,1.9,0.4,2.9c0.1,0.9,0.3,1.8,0.4,2.7s0.2,1.6,0.3,2.2
				c0,0.2,0,0.5-0.1,0.7C29.3,51.9,29.2,52,29,52c-0.2,0-0.3,0-0.5,0c-0.1,0-0.2-0.2-0.3-0.3c-0.1-0.3-0.1-0.8-0.2-1.6
				c-0.1-0.7-0.2-1.5-0.3-2.4c-0.1-0.9-0.3-1.9-0.4-2.9c-0.2-1-0.3-2-0.5-2.9c-0.2-0.9-0.3-1.8-0.5-2.5C26.1,38.8,26,38.3,25.7,37.7
				z"/>
			<path id="Path_7661" class="st0" d="M32,51.2c0,0.2,0,0.3-0.2,0.4c-0.1,0.1-0.3,0.2-0.4,0.2c-0.2,0-0.3,0-0.5-0.1
				c-0.2-0.1-0.3-0.3-0.3-0.5c-0.6-5.2-1.1-10.4-1.7-15.5c0-0.2,0-0.4,0.2-0.6c0.2-0.1,0.3-0.2,0.5-0.2c0.2,0,0.4,0,0.6,0.1
				c0.2,0.1,0.3,0.2,0.3,0.4C31,40.7,31.5,46,32,51.2z"/>
			<path id="Path_7662" class="st0" d="M32.3,35.5c0-0.2,0-0.3,0.2-0.4c0.1-0.1,0.3-0.2,0.4-0.3c0.4-0.2,0.8,0,1,0.4
				c0.7,1.2,1.4,2.3,2.1,3.3c0.7,1,1.3,2,1.9,3c0.6,1,1.3,1.9,1.9,2.8c0.6,0.9,1.3,1.9,2,2.8c0-1.1-0.1-2.2-0.1-3.2
				c0-1.1,0-2.1,0-3.1c0-1,0-2,0.1-3c0.1-1,0.1-1.9,0.3-2.7c0-0.2,0.1-0.4,0.3-0.5c0.2-0.1,0.4-0.1,0.5-0.1c0.2,0,0.4,0.1,0.5,0.2
				c0.1,0.1,0.2,0.3,0.2,0.4c-0.2,1.2-0.3,2.4-0.4,3.6c-0.1,1.2-0.1,2.4-0.1,3.7c0,1.2,0.1,2.4,0.1,3.7c0.1,1.2,0.1,2.4,0.2,3.6
				c0,0.1-0.1,0.3-0.2,0.4c-0.1,0.1-0.2,0.2-0.4,0.3c-0.2,0.1-0.3,0.1-0.5,0c-0.2-0.1-0.4-0.2-0.5-0.4c-0.5-0.7-1-1.6-1.7-2.5
				c-0.6-0.9-1.3-1.8-2-2.8c-0.7-1-1.4-2-2.1-3s-1.4-2.1-2-3.1c0.2,4.2,0.3,8.4,0.5,12.6c0,0.2-0.1,0.3-0.2,0.4
				c-0.1,0.1-0.3,0.2-0.5,0.2c-0.3,0.1-0.7-0.1-0.7-0.5c0-0.1,0-0.1,0-0.2C32.9,45.8,32.6,40.6,32.3,35.5z"/>
			<path id="Path_7663" class="st0" d="M53.6,42.8h0.7c0.2,0,0.4,0,0.5,0.2c0.1,0.1,0.2,0.3,0.2,0.5c0,0.2-0.1,0.4-0.2,0.5
				c-0.1,0.2-0.4,0.2-0.6,0.2l-0.8,0c-0.2,2.8-0.4,4.2-0.6,7.1c0,0.2-0.1,0.4-0.2,0.5c-0.1,0.1-0.3,0.2-0.5,0.2
				c-0.2,0-0.4-0.1-0.5-0.2c-0.2-0.2-0.2-0.5-0.1-0.7c0.2-2.7,0.3-4.1,0.5-6.8c-2.4,0-3.6,0-6,0.2h-0.1c0,2.6-0.1,3.9-0.1,6.5
				c0,0.2-0.1,0.4-0.2,0.5c-0.1,0.1-0.3,0.2-0.5,0.2c-0.2,0-0.3,0-0.5-0.2c-0.2-0.2-0.2-0.4-0.2-0.7c0-5.2,0-10.4,0-15.6
				c0-0.2,0.1-0.4,0.3-0.5c0.2-0.1,0.4-0.1,0.5-0.1c0.2,0,0.4,0.1,0.5,0.2c0.1,0.1,0.2,0.3,0.2,0.4c0,3.2,0,4.8-0.1,7.9
				c2.5-0.1,3.7-0.2,6.2-0.2c0.2-2.8,0.3-4.2,0.5-7.1c0-0.2,0.1-0.4,0.3-0.5c0.2-0.1,0.4-0.1,0.6-0.1c0.2,0,0.4,0.1,0.5,0.2
				c0.1,0.1,0.2,0.3,0.2,0.5C53.9,38.6,53.8,40,53.6,42.8z"/>
			<path id="Path_7664" class="st0" d="M57.8,44.5c1.3-3.2,1.9-4.8,3.3-8c0.1-0.2,0.2-0.3,0.4-0.4c0.2-0.1,0.4-0.1,0.5,0
				c0.2,0,0.4,0.1,0.5,0.2c0.1,0.1,0.2,0.3,0.3,0.5c0.7,2.9,1,4.4,1.6,7.4c0.5,0,0.7,0,1.2,0c0.2,0,0.3,0.1,0.4,0.2
				c0.1,0.1,0.2,0.3,0.2,0.5c0,0.2,0,0.3-0.1,0.5c-0.1,0.2-0.3,0.3-0.5,0.3c-0.4,0-0.6,0-1,0c0.5,2.8,0.7,4.3,1.1,7.1
				c0.1,0.2,0,0.5-0.2,0.7c-0.1,0.1-0.3,0.2-0.5,0.2c-0.2,0-0.4-0.1-0.6-0.2c-0.2-0.1-0.3-0.3-0.3-0.5c-0.4-2.9-0.6-4.4-1.2-7.3
				c-1.7,0-2.5,0.1-4.1,0.2c-0.9,2.5-1.4,3.8-2.3,6.3c-0.1,0.2-0.2,0.3-0.4,0.3c-0.2,0.1-0.4,0.1-0.6,0.1c-0.3,0-0.6-0.3-0.6-0.6
				c0-0.1,0-0.2,0.1-0.3c0.8-2.3,1.2-3.4,2-5.7l-0.6,0c-0.2,0-0.4,0-0.6-0.1c-0.1-0.1-0.2-0.3-0.2-0.4c0-0.2,0-0.3,0.1-0.5
				c0.1-0.2,0.3-0.3,0.4-0.3C56.9,44.6,57.2,44.6,57.8,44.5z M59.5,44.4c1.3-0.1,2-0.1,3.3-0.2c-0.4-2.2-0.6-3.3-1-5.6
				C60.8,40.9,60.4,42.1,59.5,44.4L59.5,44.4z"/>
		</g>
	</g>
	<g id="Group_115" transform="translate(59.585 175.655)">
		<path id="Path_7665" class="st0" d="M19.6,39.5c0.3,0,0.6,0.1,0.8,0.4c0.2,0.3,0.3,0.6,0.4,0.9c0,0.3,0,0.7-0.2,1
			c-0.2,0.3-0.5,0.5-0.9,0.5l-8,0.6L13,72.1c0,0.4-0.1,0.8-0.4,1c-0.3,0.3-0.7,0.4-1.1,0.5c-0.7,0.1-1.5-0.4-1.6-1.1
			c0-0.2,0-0.3,0-0.5L8.8,43.2l-6.3,0.3c-0.4,0.1-0.8,0-1.1-0.3C1.2,42.9,1,42.6,1,42.2c0-0.3,0.1-0.7,0.3-1
			c0.2-0.3,0.5-0.5,0.8-0.5L19.6,39.5z"/>
		<path id="Path_7666" class="st0" d="M30.3,58.8c-0.1,0.6-0.2,1.5-0.3,2.4c-0.2,1-0.4,2-0.6,3.1c-0.3,1.1-0.6,2.2-1,3.3
			c-0.4,1-0.9,2-1.4,2.9c-0.5,0.8-1.1,1.5-1.9,2c-0.7,0.5-1.6,0.7-2.5,0.6c-0.7-0.1-1.3-0.5-1.6-1c-0.4-0.7-0.8-1.5-0.9-2.3
			c-0.2-0.9-0.4-1.9-0.4-2.8c-0.1-0.9-0.1-1.8,0-2.7c0-0.7,0.1-1.5,0.2-2.5c0.1-1,0.3-2.1,0.6-3.2c0.3-1.2,0.6-2.3,1-3.4
			c0.4-1.1,0.8-2.1,1.4-3.1c0.5-0.8,1.2-1.6,1.9-2.2c0.7-0.6,1.6-0.8,2.5-0.8c1,0,2,0.5,2.7,1.3c0.8,1,1.5,2.2,1.9,3.4
			c0.6,1.5,1,3.1,1.3,4.7c0.4,1.8,0.7,3.5,0.9,5.3c0.2,1.8,0.5,3.5,0.7,5.2c0.2,1.7,0.4,3.1,0.7,4.4c0.1,0.4,0.1,0.8-0.2,1.2
			c-0.3,0.2-0.6,0.4-1,0.4c-0.4,0-0.8-0.1-1.1-0.4c-0.3-0.2-0.5-0.6-0.5-1c0-0.2-0.1-0.8-0.2-1.5c-0.1-0.8-0.2-1.7-0.4-2.7
			c-0.1-1-0.3-2.1-0.5-3.3C31.3,65.1,31.1,64,31,63c-0.2-1-0.3-1.9-0.4-2.7C30.4,59.5,30.3,59,30.3,58.8z M27.1,52.7
			c-0.6,0-1.2,0.3-1.6,0.7c-0.5,0.6-1,1.2-1.3,2c-0.4,0.9-0.7,1.8-1,2.8c-0.3,1.1-0.5,2.1-0.6,3.2c-0.2,1.1-0.3,2.1-0.3,3.2
			c0,0.9,0,1.9,0,2.8c0,0.7,0.1,1.3,0.3,2c0.2,0.5,0.4,0.8,0.7,0.8c0.3,0,0.6-0.2,0.9-0.7c0.4-0.6,0.7-1.3,1-2
			c0.4-0.8,0.7-1.8,1-2.8c0.3-1,0.6-2.1,0.9-3.2c0.3-1.1,0.5-2.2,0.6-3.2c0.2-0.9,0.2-1.9,0.3-2.8c0-0.7,0-1.3-0.2-2
			C27.8,52.9,27.5,52.7,27.1,52.7z"/>
		<path id="Path_7667" class="st0" d="M38.5,71.5c0-1.5,0-3.1,0-4.8c0-1.7-0.1-3.5-0.2-5.4c-0.1-1.8-0.2-3.7-0.4-5.6
			c-0.2-1.9-0.4-3.7-0.6-5.4c-0.1-0.4,0-0.7,0.3-1c0.2-0.2,0.5-0.3,0.8-0.3c0.3,0,0.6,0,0.9,0.2c0.3,0.1,0.5,0.4,0.5,0.6
			c0.1,1,0.3,2.1,0.4,3.3c0.1,1.2,0.2,2.3,0.3,3.5c0.1,1.1,0.2,2.2,0.2,3.3c0,1,0,1.9,0,2.7c0-0.3,0.1-0.9,0.3-1.6
			c0.2-0.8,0.4-1.6,0.7-2.4c0.3-1,0.7-1.9,1.2-2.8c0.5-0.9,1-1.8,1.7-2.6c0.7-0.8,1.5-1.4,2.3-2c0.9-0.5,2-0.8,3-0.8
			c0.3,0,0.7,0.1,0.8,0.4c0.2,0.3,0.3,0.6,0.2,1c0,0.3-0.1,0.7-0.2,1c-0.1,0.3-0.3,0.5-0.5,0.5c-1.2,0.1-2.3,0.6-3.1,1.4
			c-0.9,0.9-1.7,2-2.2,3.1c-0.6,1.3-1.1,2.6-1.5,4c-0.4,1.5-0.7,2.9-0.9,4.2c-0.2,1.3-0.4,2.6-0.5,3.6C42.1,70.7,42,71.5,42,72
			c0,0.4-0.3,0.7-0.6,0.9c-0.4,0.2-0.8,0.3-1.2,0.3c-0.4,0-0.8-0.2-1.2-0.4C38.6,72.5,38.4,72,38.5,71.5z"/>
		<path id="Path_7668" class="st0" d="M51.4,64.1c0-0.1-0.1-0.1-0.3-0.2c-0.3-0.1-0.5-0.2-0.8-0.3c-0.3-0.2-0.5-0.4-0.7-0.7
			c-0.2-0.4-0.4-0.8-0.3-1.2c0-0.1,0-0.3,0.1-0.4c0.1-0.2,0.2-0.3,0.4-0.4c0.2-0.2,0.5-0.3,0.7-0.3c0.4-0.1,0.8-0.1,1.2-0.1
			c0-0.4,0.1-1,0.3-1.7s0.3-1.5,0.6-2.3c0.3-0.8,0.6-1.7,0.9-2.5c0.3-0.8,0.8-1.6,1.3-2.3c0.5-0.7,1-1.2,1.7-1.7
			c0.6-0.4,1.4-0.7,2.2-0.7c0.5,0,1.1,0.1,1.6,0.2c0.5,0.1,0.9,0.4,1.3,0.6c0.4,0.3,0.7,0.7,0.9,1.1c0.2,0.5,0.4,1,0.3,1.5
			c0,0.8-0.2,1.6-0.4,2.4c-0.3,0.8-0.7,1.6-1.2,2.3c-0.5,0.7-1.1,1.4-1.7,2.1c-0.6,0.6-1.2,1.2-1.9,1.8c-0.6,0.5-1.2,0.9-1.8,1.4
			c-0.5,0.3-1,0.6-1.5,0.8c0,0.7,0,1.4,0,2.1c0.1,0.8,0.2,1.5,0.4,2.2c0.2,0.6,0.5,1.2,0.9,1.8c0.4,0.5,0.9,0.7,1.5,0.7
			c0.4,0,0.9-0.2,1.2-0.4c0.5-0.3,1-0.8,1.5-1.2c0.6-0.6,1.1-1.3,1.6-2c0.6-0.9,1.1-1.8,1.5-2.7c0.1-0.3,0.4-0.5,0.7-0.6
			c0.3,0,0.6,0.1,0.9,0.2c0.3,0.2,0.5,0.4,0.6,0.7c0.1,0.3,0.1,0.6,0,0.9c-0.5,1.1-1.1,2.1-1.8,3.1c-0.6,0.9-1.3,1.7-2.1,2.5
			c-0.7,0.7-1.4,1.2-2.3,1.7c-0.7,0.4-1.5,0.6-2.4,0.6c-0.9,0-1.8-0.3-2.6-0.9c-0.7-0.6-1.2-1.3-1.6-2.1c-0.4-0.9-0.7-1.9-0.9-2.9
			C51.7,66.2,51.5,65.1,51.4,64.1z M59.8,52.3c-0.4-0.3-0.9-0.4-1.4-0.2c-0.5,0.2-0.9,0.5-1.3,1c-0.4,0.5-0.8,1.1-1.1,1.7
			c-0.3,0.7-0.6,1.3-0.8,2c-0.2,0.7-0.4,1.3-0.6,1.9c-0.1,0.4-0.2,0.8-0.2,1.2c0.4,0,0.8-0.2,1.1-0.5c0.5-0.4,1-0.8,1.4-1.2
			c0.5-0.5,1-1.1,1.4-1.7c0.4-0.6,0.8-1.1,1.2-1.8c0.3-0.5,0.5-1,0.6-1.5C60.3,52.9,60.1,52.5,59.8,52.3L59.8,52.3z"/>
		<path id="Path_7669" class="st0" d="M79.5,56.4c-0.9,0.1-1.6,0.1-2.2,0.2l-1.6,0.2c-0.5,0-0.9,0.1-1.4,0.1c-0.4,0-0.9,0.1-1.5,0.1
			c0,0.4,0.1,0.8,0.1,1.2c0,0.4,0.1,0.8,0.1,1.1c0.1,1.2,0.2,2.5,0.3,3.7c0.1,1.2,0.2,2.4,0.2,3.5c0.1,1.1,0.1,2.2,0.2,3.2
			c0,1,0.1,1.9,0.1,2.7c0,0.3-0.2,0.6-0.4,0.7c-0.3,0.2-0.6,0.3-1,0.4c-0.3,0.1-0.7,0-1-0.1c-0.3-0.2-0.5-0.5-0.5-0.8l-0.7-12.8
			c0-0.4-0.1-0.9-0.1-1.2c0-0.4-0.1-0.8-0.1-1.2c-0.4,0-0.9,0.1-1.3,0.1c-0.4,0-0.9,0-1.4,0c-0.3,0-0.7-0.1-0.9-0.4
			C66.2,56.7,66,56.4,66,56c-0.1-0.6,0.3-1.2,0.9-1.4c0.1,0,0.3,0,0.4,0l2.5-0.2c-0.1-2.1-0.1-4.2,0-6.2c0.1-1.5,0.3-3,0.7-4.5
			c0.3-1,0.8-2,1.5-2.9c0.6-0.7,1.4-1.1,2.3-1.3c0.7-0.2,1.5-0.2,2.2-0.1c0.8,0.1,1.6,0.3,2.4,0.7c0.8,0.4,1.6,1,2.2,1.7
			c0.7,0.8,1.3,1.8,1.6,2.8c0.2,0.3,0.1,0.7,0,1.1c-0.2,0.3-0.4,0.5-0.7,0.6c-0.3,0.1-0.6,0.1-0.9,0.1c-0.3,0-0.5-0.3-0.6-0.5
			c-0.4-1.1-1.2-2.2-2.1-3c-0.9-0.7-2.1-0.9-3.2-0.7c-0.7,0.1-1.3,0.6-1.5,1.2c-0.4,0.9-0.7,1.8-0.8,2.8c-0.2,1.2-0.3,2.5-0.2,3.8
			c0,1.4,0,2.8,0.1,4.2l6.7-0.5c0.4,0,0.7,0.1,1,0.3c0.3,0.2,0.4,0.5,0.5,0.8c0,0.3,0,0.7-0.2,0.9C80.3,56.1,79.9,56.3,79.5,56.4z"
			/>
		<path id="Path_7670" class="st0" d="M84,46.8c0-0.3,0-0.5,0.2-0.7c0.2-0.2,0.4-0.4,0.7-0.5c0.3-0.1,0.6-0.2,0.9-0.2
			c0.3,0,0.6,0,0.9,0.2c0.3,0.1,0.5,0.3,0.7,0.5c0.2,0.3,0.3,0.7,0.2,1c0,0.4-0.2,0.7-0.6,0.9c-0.4,0.2-0.8,0.3-1.2,0.3
			c-0.4,0-0.9-0.1-1.2-0.4C84.2,47.7,84,47.3,84,46.8z M87.6,72.2c0,0.3-0.2,0.6-0.5,0.8c-0.3,0.3-0.7,0.4-1.1,0.5
			c-0.4,0.1-0.7,0-1.1-0.2c-0.3-0.2-0.5-0.6-0.4-1.3l-0.1-21.1c0-0.4,0.1-0.8,0.4-1.1c0.3-0.2,0.6-0.3,0.9-0.3
			c0.3,0,0.7,0.1,0.9,0.4c0.3,0.2,0.4,0.5,0.4,0.9L87.6,72.2z"/>
		<path id="Path_7671" class="st0" d="M93.3,73c0-1,0-2.3-0.1-4c-0.1-1.7-0.3-3.5-0.6-5.6c-0.3-2-0.6-4.1-1.1-6.3
			C91,55,90.5,52.9,90,51c-0.1-0.4-0.1-0.8,0.2-1.1c0.2-0.3,0.6-0.5,1-0.5c0.4-0.1,0.8,0,1.2,0.2c0.4,0.2,0.7,0.6,0.8,1
			c0.3,1.2,0.6,2.4,0.8,3.6c0.2,1.3,0.4,2.4,0.5,3.6c0.2,1.1,0.3,2.2,0.4,3.1c0.1,1,0.2,1.7,0.3,2.2c0.1-1,0.3-2,0.5-3
			c0.2-1,0.6-2,0.9-3c0.4-0.9,0.8-1.8,1.4-2.7c0.5-0.8,1-1.5,1.7-2.2c0.6-0.6,1.3-1,2-1.4c0.7-0.3,1.5-0.5,2.3-0.4
			c1.2,0,2.3,0.4,3.2,1.2c1,1,1.7,2.2,2,3.5c0.5,1.9,0.9,3.8,1,5.7c0.2,2.6,0.2,5.2,0,7.8c0,0.5-0.2,1-0.6,1.4
			c-0.3,0.3-0.7,0.5-1.1,0.5c-0.4,0-0.8-0.1-1.1-0.4c-0.3-0.3-0.5-0.7-0.4-1.2c0-0.7,0.1-1.6,0.2-2.6c0.1-1,0.1-2.1,0.1-3.2
			c0-1.1,0-2.2-0.1-3.3c-0.1-1-0.3-2-0.5-3c-0.2-0.8-0.6-1.5-1.1-2.1c-0.5-0.5-1.2-0.8-1.9-0.8c-0.7,0-1.4,0.3-1.9,0.8
			c-0.6,0.6-1.1,1.3-1.5,2c-0.5,0.9-0.9,1.9-1.2,2.9c-0.3,1.1-0.6,2.2-0.9,3.4c-0.3,1.2-0.5,2.3-0.7,3.4c-0.2,1.1-0.3,2.1-0.4,3
			c-0.1,0.9-0.2,1.7-0.2,2.3c0,0.6-0.1,1-0.1,1.1c0,0.5-0.2,0.9-0.6,1.2c-0.3,0.2-0.7,0.3-1.1,0.3c-0.4,0-0.7-0.2-1-0.4
			C93.4,73.7,93.3,73.4,93.3,73z"/>
		<path id="Path_7672" class="st0" d="M112.5,72.6c0-0.5,0.1-1.4,0-2.5c0-1.1,0-2.5-0.1-4.1c0-1.6-0.1-3.4-0.2-5.3
			c-0.1-2-0.2-4-0.4-6.2c-0.2-2.2-0.4-4.4-0.6-6.7c-0.3-2.3-0.5-4.6-0.9-6.8c-0.1-0.4,0-0.8,0.3-1.1c0.3-0.2,0.6-0.4,0.9-0.4
			c0.4,0,0.7,0,1,0.2c0.3,0.1,0.5,0.3,0.5,0.6c0.3,2.3,0.5,4.6,0.7,7c0.2,2.3,0.4,4.5,0.6,6.5c0.2,2,0.3,3.9,0.4,5.5
			c0.1,1.6,0.2,3,0.2,4c0-0.2,0.1-0.6,0.3-1.1c0.2-0.7,0.4-1.4,0.6-2c0.3-0.8,0.6-1.6,1-2.4c0.4-0.8,0.9-1.6,1.5-2.3
			c0.6-0.7,1.3-1.3,2.2-1.7c0.9-0.5,1.9-0.7,2.9-0.6c1.3,0,2.5,0.4,3.5,1.2c1,0.8,1.7,1.9,2.2,3.1c0.6,1.3,1,2.7,1.2,4.1
			c0.2,1.5,0.4,3,0.5,4.5c0.1,1.5,0.1,2.8,0,4.1c-0.1,1.2-0.1,2.2-0.2,2.9c0,0.4-0.3,0.7-0.6,0.8c-0.3,0.2-0.7,0.3-1.1,0.2
			c-0.4,0-0.8-0.1-1.1-0.3c-0.3-0.2-0.5-0.6-0.4-1c0-0.6,0.1-1.5,0.2-2.5s0.1-2.2,0.1-3.4c0-1.2,0-2.5-0.2-3.7
			c-0.1-1.2-0.3-2.3-0.6-3.4c-0.3-0.9-0.7-1.8-1.3-2.5c-0.5-0.6-1.3-1-2.2-1c-1,0-1.9,0.3-2.6,1c-0.8,0.7-1.4,1.6-1.9,2.5
			c-0.6,1.1-1,2.3-1.4,3.4c-0.4,1.3-0.7,2.5-0.9,3.8c-0.3,1.2-0.5,2.4-0.6,3.4c-0.1,1-0.2,1.9-0.3,2.5c0,0.5-0.3,0.9-0.7,1.2
			c-0.3,0.2-0.7,0.4-1.2,0.3c-0.4,0-0.8-0.2-1.1-0.5C112.6,73.5,112.4,73,112.5,72.6z"/>
		<path id="Path_7673" class="st0" d="M143.5,58.8c-0.1,0.6-0.2,1.5-0.3,2.4c-0.2,1-0.4,2-0.6,3.1c-0.3,1.1-0.6,2.2-1,3.3
			c-0.4,1-0.9,2-1.4,2.9c-0.5,0.8-1.1,1.5-1.9,2c-0.7,0.5-1.6,0.7-2.5,0.6c-0.7-0.1-1.3-0.5-1.6-1c-0.4-0.7-0.8-1.5-0.9-2.3
			c-0.2-0.9-0.4-1.9-0.4-2.8c-0.1-0.9-0.1-1.8,0-2.7c0-0.7,0.1-1.5,0.2-2.5c0.1-1,0.3-2.1,0.6-3.2c0.3-1.2,0.6-2.3,1-3.4
			c0.4-1.1,0.8-2.1,1.4-3.1c0.5-0.8,1.2-1.6,1.9-2.2c0.7-0.6,1.6-0.8,2.5-0.8c1,0,2,0.5,2.7,1.3c0.8,1,1.5,2.2,1.9,3.4
			c0.6,1.5,1,3.1,1.3,4.7c0.4,1.8,0.7,3.5,0.9,5.3c0.2,1.8,0.5,3.5,0.7,5.2c0.2,1.7,0.4,3.1,0.7,4.4c0.1,0.4,0.1,0.8-0.2,1.2
			c-0.3,0.2-0.6,0.4-1,0.4c-0.4,0-0.8-0.1-1.1-0.4c-0.3-0.2-0.5-0.6-0.5-1c0-0.2-0.1-0.8-0.2-1.5c-0.1-0.8-0.2-1.7-0.4-2.7
			c-0.1-1-0.3-2.1-0.5-3.3c-0.2-1.2-0.3-2.3-0.5-3.3c-0.2-1-0.3-1.9-0.4-2.7C143.6,59.5,143.5,59,143.5,58.8z M140.3,52.7
			c-0.6,0-1.2,0.3-1.6,0.7c-0.5,0.6-1,1.2-1.3,2c-0.4,0.9-0.7,1.8-1,2.8c-0.3,1.1-0.5,2.1-0.6,3.2c-0.2,1.1-0.3,2.1-0.3,3.2
			c0,0.9,0,1.9,0,2.8c0,0.7,0.1,1.3,0.3,2c0.2,0.5,0.4,0.8,0.7,0.8c0.3,0,0.6-0.2,0.9-0.7c0.4-0.6,0.7-1.3,1-2
			c0.4-0.8,0.7-1.8,1-2.8c0.3-1,0.6-2.1,0.9-3.2c0.3-1.1,0.5-2.2,0.6-3.2c0.2-0.9,0.2-1.9,0.3-2.8c0-0.7,0-1.3-0.2-2
			C140.9,52.9,140.7,52.7,140.3,52.7z"/>
	</g>
	<g id="Group_120" transform="translate(88.209 171.134)">
		<g id="Group_116" transform="translate(0 1.85)">
			<path id="Path_7674" class="st0" d="M17.5,41.7c-1.3-1.4-2.8-2.4-4.6-3c-0.7-0.2-1.5-0.4-2,0.1c-0.4,0.5-0.3,1.3,0.3,1.7
				c0,0,0.1,0,0.1,0.1c0.6,0.4,1.3,0.5,2,0.6c1.4,0.2,2.7,0.4,4,0.8L17.5,41.7z"/>
		</g>
		<g id="Group_117" transform="translate(2.357)">
			<path id="Path_7675" class="st0" d="M14.8,41.8c-0.2-1.2-0.7-2.4-1.5-3.3c-0.3-0.4-0.7-0.7-1.2-0.6c-0.4,0.2-0.7,0.7-0.5,1.1
				c0,0,0,0,0,0c0.2,0.4,0.6,0.8,1,1c0.7,0.6,1.4,1.2,2,1.8L14.8,41.8z"/>
		</g>
		<g id="Group_118" transform="translate(48.168 1.85)">
			<path id="Path_7676" class="st0" d="M27.1,41.7c1.3-1.4,2.8-2.4,4.6-3c0.7-0.2,1.5-0.4,2,0.1c0.4,0.5,0.3,1.3-0.3,1.7
				c0,0-0.1,0-0.1,0.1c-0.6,0.4-1.3,0.5-2,0.6c-1.4,0.2-2.7,0.4-4,0.8L27.1,41.7z"/>
		</g>
		<g id="Group_119" transform="translate(48.479)">
			<path id="Path_7677" class="st0" d="M27.2,41.8c0.2-1.2,0.7-2.4,1.5-3.3c0.3-0.4,0.7-0.7,1.2-0.6c0.4,0.2,0.7,0.7,0.5,1.1
				c0,0,0,0,0,0c-0.2,0.4-0.6,0.8-1,1c-0.7,0.6-1.4,1.2-2,1.8L27.2,41.8z"/>
		</g>
	</g>
</g>
</svg>
