<?xml version="1.0" encoding="utf-8"?>
<!-- Generator: Adobe Illustrator 25.4.1, SVG Export Plug-In . SVG Version: 6.00 Build 0)  -->
<svg version="1.1" id="Layer_1" xmlns="http://www.w3.org/2000/svg" xmlns:xlink="http://www.w3.org/1999/xlink" x="0px" y="0px"
	 viewBox="0 0 150 150" style="enable-background:new 0 0 150 150;" xml:space="preserve">
<style type="text/css">
	.st0{fill:#FFFFFF;}
</style>
<path id="graduation-cap" class="st0" d="M147.5,103l-11.5-11.5V52.3l7.5-2.7c2.3-0.8,3.4-3.3,2.6-5.5c-0.4-1.2-1.4-2.2-2.6-2.6
	L75.1,16.6c-1-0.3-2-0.3-3,0L3.7,41.4c-2.3,0.8-3.4,3.3-2.6,5.6c0.4,1.2,1.4,2.1,2.6,2.6l25.3,9.4v28.6c0,0.9,0.3,1.8,0.8,2.5
	c2.6,3.2,5.9,5.7,9.7,7.4c8.5,4.3,19.8,6.5,33.3,6.5s24.8-2.2,33.5-6.5c3.8-1.7,7.2-4.2,9.9-7.4c0.5-0.7,0.8-1.6,0.8-2.6V59.2
	l10.6-3.8v36.2L116,103c-1.7,1.7-1.7,4.4,0,6.1c0,0,0,0,0,0l11.5,11.5v9.6c0,2.4,1.9,4.3,4.3,4.3s4.3-1.9,4.3-4.3v-9.6l11.5-11.5
	C149.2,107.5,149.2,104.7,147.5,103C147.6,103,147.6,103,147.5,103L147.5,103z M73.6,25.3l55.7,20.2L72.7,65.9l-55-20.4L73.6,25.3z
	 M108.2,85.8c-14.8,13.3-58.9,11.8-70.6,0V62.1l33.6,12.5c1,0.4,2,0.4,3,0l34-12.3V85.8z M131.7,112.7l-6.6-6.6l6.6-6.6l6.6,6.6
	L131.7,112.7z"/>
</svg>
