<?xml version="1.0" encoding="utf-8"?>
<!-- Generator: Adobe Illustrator 25.4.1, SVG Export Plug-In . SVG Version: 6.00 Build 0)  -->
<svg version="1.1" id="Layer_1" xmlns="http://www.w3.org/2000/svg" xmlns:xlink="http://www.w3.org/1999/xlink" x="0px" y="0px"
	 viewBox="0 0 150 150" style="enable-background:new 0 0 150 150;" xml:space="preserve">
<style type="text/css">
	.st0{fill:#FFFFFF;}
</style>
<path id="Path_7687" class="st0" d="M74.8,1.3C33.8,1.3,0.7,34.5,0.7,75.4c0,40.9,33.2,74.1,74.1,74.1c40.9,0,74.1-33.2,74.1-74.1
	c0,0,0,0,0,0C148.8,34.5,115.7,1.4,74.8,1.3z M74.8,140.9c-36.1,0-65.4-29.3-65.4-65.4S38.6,10,74.8,10s65.4,29.3,65.4,65.4
	C140.2,111.6,110.9,140.8,74.8,140.9z"/>
<circle id="Ellipse_35" class="st0" cx="37.9" cy="112.3" r="4.3"/>
<circle id="Ellipse_36" class="st0" cx="111.6" cy="38.6" r="4.3"/>
<path id="Path_7688" class="st0" d="M34.9,35.5c-1.7,1.7-1.7,4.4,0,6.1c1.7,1.7,4.4,1.7,6.1,0c1.7-1.7,1.7-4.4,0-6.1c0,0,0,0,0,0
	C39.3,33.8,36.5,33.8,34.9,35.5z"/>
<path id="Path_7689" class="st0" d="M108.6,109.2c-1.7,1.7-1.7,4.4,0,6.1c1.7,1.7,4.4,1.7,6.1,0c1.7-1.7,1.7-4.4,0-6.1c0,0,0,0,0,0
	C113,107.5,110.3,107.5,108.6,109.2z"/>
<path id="Path_7690" class="st0" d="M74.8,36.4c2.4,0,4.3-1.9,4.3-4.3v-8.7c0-2.4-1.9-4.3-4.3-4.3c-2.4,0-4.3,1.9-4.3,4.3V32
	C70.4,34.4,72.4,36.4,74.8,36.4C74.8,36.4,74.8,36.4,74.8,36.4z"/>
<path id="Path_7691" class="st0" d="M74.8,114.5c-2.4,0-4.3,1.9-4.3,4.3v8.7c0,2.4,1.9,4.3,4.3,4.3c2.4,0,4.3-1.9,4.3-4.3l0,0v-8.7
	C79.1,116.5,77.2,114.5,74.8,114.5L74.8,114.5z"/>
<path id="Path_7692" class="st0" d="M35.7,75.5c0-2.4-1.9-4.3-4.3-4.3h-8.7c-2.4,0-4.3,1.9-4.3,4.3c0,2.4,1.9,4.3,4.3,4.3h8.7
	C33.7,79.8,35.7,77.8,35.7,75.5C35.7,75.5,35.7,75.5,35.7,75.5z"/>
<path id="Path_7693" class="st0" d="M113.9,75.5c0,2.4,1.9,4.3,4.3,4.3h8.7c2.4,0,4.3-1.9,4.3-4.3c0-2.4-1.9-4.3-4.3-4.3l0,0h-8.7
	C115.8,71.1,113.9,73.1,113.9,75.5L113.9,75.5z"/>
<path id="Path_7694" class="st0" d="M79.1,73.7V49.4c0-2.4-1.9-4.3-4.3-4.3c-2.4,0-4.3,1.9-4.3,4.3v26.1c0,1.2,0.5,2.3,1.3,3.1
	l26.1,26.1c1.7,1.7,4.4,1.7,6.1,0.1c1.7-1.7,1.7-4.4,0.1-6.1c0,0,0,0-0.1-0.1L79.1,73.7z"/>
</svg>
