<?xml version="1.0" encoding="utf-8"?>
<!-- Generator: Adobe Illustrator 25.4.1, SVG Export Plug-In . SVG Version: 6.00 Build 0)  -->
<svg version="1.1" id="Layer_1" xmlns="http://www.w3.org/2000/svg" xmlns:xlink="http://www.w3.org/1999/xlink" x="0px" y="0px"
	 viewBox="0 0 150 150" style="enable-background:new 0 0 150 150;" xml:space="preserve">
<style type="text/css">
	.st0{fill:#F24655;}
	.st1{enable-background:new    ;}
	.st2{fill:#FFFFFF;}
</style>
<circle id="Ellipse_29" class="st0" cx="74.8" cy="75.5" r="74"/>
<g class="st1">
	<path class="st2" d="M73.8,40.9c6.8,0,12.3,1.7,16.5,5.1c4.2,3.4,6.3,7.9,6.3,13.4c0,3.3-0.8,6.3-2.5,8.7c-1.7,2.5-4,4.4-7.1,5.9
		c3.5,1.3,6.2,3.3,8.1,5.8c1.9,2.5,2.9,5.5,2.9,8.9c0,2.5-0.4,4.7-1.3,6.8c-0.9,2.1-2,3.9-3.5,5.3c-1.5,1.5-3.3,2.7-5.3,3.7
		c-2,1-4.2,1.8-6.5,2.3c-2.3,0.5-4.7,0.7-7.2,0.7c-4.8,0-9.1-0.8-13-2.4c-3.9-1.6-7-3.9-9.5-6.9l7.4-8.1c1.9,2,4.1,3.5,6.6,4.6
		c2.6,1.1,5.2,1.6,8,1.6c3.3,0,6-0.7,8.1-2.2c2.1-1.4,3.2-3.5,3.2-6.2c0-2.7-1.2-4.7-3.6-6.2c-2.4-1.5-5.4-2.2-9-2.2H65v-11h7.5
		c3.3,0,6-0.7,8.1-2.1c2.1-1.4,3.2-3.4,3.2-6c0-2.5-1-4.5-3-5.9c-2-1.4-4.6-2.1-7.7-2.1c-2.8,0-5.3,0.6-7.5,1.8
		c-2.2,1.2-4.1,2.8-5.5,4.7l-7.8-7.9c2.3-3.1,5.2-5.5,8.8-7.3C64.7,41.8,68.9,40.9,73.8,40.9z"/>
</g>
</svg>
