<?xml version="1.0" encoding="utf-8"?>
<!-- Generator: Adobe Illustrator 25.4.1, SVG Export Plug-In . SVG Version: 6.00 Build 0)  -->
<svg version="1.1" id="Layer_1" xmlns="http://www.w3.org/2000/svg" xmlns:xlink="http://www.w3.org/1999/xlink" x="0px" y="0px"
	 viewBox="0 0 150 150" style="enable-background:new 0 0 150 150;" xml:space="preserve">
<style type="text/css">
	.st0{fill:#FFFFFF;}
</style>
<g id="Group_122" transform="translate(0 0)">
	<g id="Group_121">
		<path id="Path_7695" class="st0" d="M126.1,24.2C98.1-4.5,52.1-5,23.5,23s-29.2,73.9-1.2,102.6c0.4,0.4,0.8,0.8,1.2,1.2
			c28,28.7,73.9,29.2,102.6,1.2s29.2-73.9,1.2-102.6C126.9,24.9,126.5,24.5,126.1,24.2z M74.8,139.4c-35.3,0-63.9-28.6-63.9-63.9
			s28.6-63.9,63.9-63.9c35.3,0,63.9,28.6,63.9,63.9c0,0,0,0,0,0C138.6,110.7,110.1,139.3,74.8,139.4L74.8,139.4z"/>
	</g>
</g>
<g id="Group_124" transform="translate(12.607 20.248)">
	<g id="Group_123">
		<path id="Path_7696" class="st0" d="M46.5,36C39.4,29,27.9,29,20.8,36c-1.7,1.7-1.7,4.4,0,6.1c1.7,1.7,4.4,1.7,6.1,0
			c3.7-3.7,9.7-3.7,13.4,0c1.7,1.7,4.4,1.7,6.1,0C48.2,40.5,48.2,37.7,46.5,36L46.5,36z"/>
	</g>
</g>
<g id="Group_126" transform="translate(36.624 20.248)">
	<g id="Group_125">
		<path id="Path_7697" class="st0" d="M79.5,36C72.4,29,60.9,29,53.8,36c-1.7,1.7-1.7,4.4,0,6.1c1.7,1.7,4.4,1.7,6.1,0l0,0
			c3.7-3.7,9.7-3.7,13.4,0c0,0,0,0,0,0c1.7,1.7,4.4,1.7,6.1,0C81.2,40.5,81.2,37.7,79.5,36L79.5,36z"/>
	</g>
</g>
<g id="Group_128" transform="translate(12.608 31.883)">
	<g id="Group_127">
		<path id="Path_7698" class="st0" d="M100.5,46.7H23.9c-2.4,0-4.3,1.9-4.3,4.3c0,23.5,19.1,42.6,42.6,42.6s42.6-19.1,42.6-42.6
			C104.8,48.7,102.8,46.7,100.5,46.7z M62.2,85c-17.1,0-31.5-12.7-33.7-29.6h67.4C93.7,72.3,79.2,85,62.2,85z"/>
	</g>
</g>
</svg>
