<?xml version="1.0" encoding="utf-8"?>
<!-- Generator: Adobe Illustrator 25.4.1, SVG Export Plug-In . SVG Version: 6.00 Build 0)  -->
<svg version="1.1" id="Layer_1" xmlns="http://www.w3.org/2000/svg" xmlns:xlink="http://www.w3.org/1999/xlink" x="0px" y="0px"
	 viewBox="0 0 150 150" style="enable-background:new 0 0 150 150;" xml:space="preserve">
<style type="text/css">
	.st0{fill:#FFFFFF;}
</style>
<g id="Group_129">
	<path id="Path_7699" class="st0" d="M74.8,1.7C34,1.7,1,34.7,1,75.5s33,73.8,73.8,73.8s73.8-33,73.8-73.8
		C148.5,34.7,115.5,1.7,74.8,1.7z M52.8,14.1c-5,6.7-8.8,14.2-11.3,22.1H22.8C30.4,26.1,40.8,18.4,52.8,14.1z M17.3,44.9H39
		c-2,8.6-3.1,17.4-3.4,26.3H9.8C10.4,61.9,12.9,53,17.3,44.9z M17.3,106c-4.3-8.1-6.9-17.1-7.5-26.2h25.9C35.9,88.6,37,97.4,39,106
		L17.3,106z M22.8,114.7h18.7c2.5,8,6.3,15.4,11.3,22.1C40.8,132.5,30.4,124.8,22.8,114.7L22.8,114.7z M70.5,139.9
		c-9.7-3.2-16.3-15.6-19.8-25.2h19.8V139.9z M70.5,106H47.9c-2.2-8.6-3.4-17.4-3.6-26.2h26.2L70.5,106z M70.5,71.1H44.3
		c0.2-8.9,1.5-17.6,3.6-26.2h22.5L70.5,71.1z M70.5,36.2H50.6c3.5-9.6,10.2-22,19.8-25.2L70.5,36.2z M132.3,44.9
		c4.3,8.1,6.9,17.1,7.5,26.2h-25.9c-0.2-8.8-1.4-17.6-3.4-26.2H132.3z M126.8,36.2h-18.7c-2.5-8-6.3-15.4-11.3-22.1
		C108.7,18.4,119.1,26.1,126.8,36.2z M79.1,11c9.7,3.2,16.3,15.6,19.8,25.2H79.1V11z M79.1,44.9h22.5c2.2,8.6,3.4,17.4,3.6,26.2
		H79.1V44.9z M79.1,79.7h26.2c-0.2,8.9-1.5,17.7-3.6,26.3H79.1V79.7z M79.1,139.9v-25.2h19.8C95.4,124.2,88.7,136.6,79.1,139.9z
		 M96.8,136.8c5-6.7,8.8-14.2,11.3-22.1h18.7C119.1,124.7,108.7,132.4,96.8,136.8z M132.3,106h-21.8c2-8.6,3.1-17.4,3.4-26.3h25.9
		C139.2,88.9,136.6,97.9,132.3,106z"/>
</g>
</svg>
