<?xml version="1.0" encoding="utf-8"?>
<!-- Generator: Adobe Illustrator 25.4.1, SVG Export Plug-In . SVG Version: 6.00 Build 0)  -->
<svg version="1.1" id="Layer_1" xmlns="http://www.w3.org/2000/svg" xmlns:xlink="http://www.w3.org/1999/xlink" x="0px" y="0px"
	 viewBox="0 0 150 150" style="enable-background:new 0 0 150 150;" xml:space="preserve">
<style type="text/css">
	.st0{fill:#F24655;}
	.st1{enable-background:new    ;}
	.st2{fill:#FFFFFF;}
</style>
<circle id="Ellipse_29" class="st0" cx="74.8" cy="75.5" r="74"/>
<g class="st1">
	<path class="st2" d="M58.9,59.8l-8-7.9c5.7-7.4,13-11.1,22-11.1c6.7,0,12,1.9,15.9,5.7c3.9,3.8,5.9,8.8,5.9,15.1
		c0,3.6-0.8,6.9-2.4,9.8c-1.6,2.9-3.9,5.9-6.9,9L71.7,94.8h24.6v11.6H53.7v-9.7l22.8-23.3c3.5-3.6,5.3-7.3,5.3-11
		c0-2.8-0.9-5.1-2.7-6.9c-1.8-1.8-4.2-2.7-7.1-2.7c-2.8,0-5.2,0.6-7.1,1.8C62.8,55.8,60.9,57.5,58.9,59.8z"/>
</g>
</svg>
