<?xml version="1.0" encoding="utf-8"?>
<!-- Generator: Adobe Illustrator 25.4.1, SVG Export Plug-In . SVG Version: 6.00 Build 0)  -->
<svg version="1.1" id="Layer_1" xmlns="http://www.w3.org/2000/svg" xmlns:xlink="http://www.w3.org/1999/xlink" x="0px" y="0px"
	 viewBox="0 0 150 150" style="enable-background:new 0 0 150 150;" xml:space="preserve">
<style type="text/css">
	.st0{fill:#FFFFFF;}
</style>
<g id="like" transform="translate(-0.195)">
	<g id="Group_130" transform="translate(0.195 0)">
		<path id="Path_7700" class="st0" d="M148.3,90.7c0-5.3-2.8-10.3-7.4-13c4.8-6.9,3-16.3-3.9-21.1c-2.5-1.8-5.5-2.7-8.6-2.7h-32
			c1-4.5,2.3-11.1,3.3-18.1c2.4-18.2,0.8-28.3-5.2-31.8C91,1.9,86.8,1.4,83.1,2.8c-4.3,1.8-7.5,5.5-8.6,10L66,34.8
			c-5.6,13.8-26.2,28.5-31.1,31.8H5.6c-2.4,0-4.3,1.9-4.4,4.3v64c0,2.4,1.9,4.4,4.4,4.4c0,0,0,0,0,0h29.8
			c16.5,6.5,34.1,9.9,51.9,9.9h34.9c8.4,0,15.2-6.8,15.2-15.2c0-2.8-0.8-5.6-2.3-8c7.5-3.7,10.7-12.7,7-20.3c-0.3-0.7-0.7-1.4-1.2-2
			C145.5,101,148.3,96,148.3,90.7z M31.8,130.6H9.9V75.4h21.9V130.6z M133.1,97.2h-4.7c-2.4,0-4.4,1.9-4.4,4.4
			c0,2.4,1.9,4.4,4.4,4.4l0,0c3.6,0,6.5,2.9,6.5,6.5c0,3.6-2.9,6.5-6.5,6.5h-6.3c-2.4,0-4.4,1.9-4.4,4.4s1.9,4.4,4.4,4.4
			c3.6,0,6.5,2.9,6.5,6.5c0,3.6-2.9,6.5-6.5,6.5l0,0H87.2c-16,0-31.8-2.9-46.7-8.5V73.3c6.6-4.5,27.3-19.7,33.5-35.3l0-0.1l8.5-22.2
			c0-0.1,0-0.1,0.1-0.2c0.4-2,1.7-3.7,3.5-4.7c1.3-0.4,2.8-0.1,3.9,0.6c0,0,3.7,2.7,1,23c-1.1,7.6-2.5,15.2-4.3,22.6
			c-0.6,2.3,0.8,4.7,3.1,5.3c0.4,0.1,0.7,0.1,1.1,0.1h37.5c3.6,0,6.5,2.9,6.5,6.5c0,3.6-2.9,6.5-6.5,6.5l0,0c-2.4,0-4.4,1.9-4.4,4.4
			s1.9,4.4,4.4,4.4h4.7c3.6,0,6.5,2.9,6.5,6.5C139.6,94.3,136.7,97.2,133.1,97.2L133.1,97.2z"/>
	</g>
</g>
</svg>
