<?xml version="1.0" encoding="utf-8"?>
<!-- Generator: Adobe Illustrator 25.4.1, SVG Export Plug-In . SVG Version: 6.00 Build 0)  -->
<svg version="1.1" id="Layer_1" xmlns="http://www.w3.org/2000/svg" xmlns:xlink="http://www.w3.org/1999/xlink" x="0px" y="0px"
	 viewBox="0 0 150 150" style="enable-background:new 0 0 150 150;" xml:space="preserve">
<style type="text/css">
	.st0{fill:#FFFFFF;}
</style>
<g id="brain_1_" transform="translate(-0.001 -49.101)">
	<path id="Path_7701" class="st0" d="M139.4,100.1c-5.2-6.6-11.1-12.7-17.5-18.2C98,62.5,71.3,61.6,43.5,74.5
		c-15.1,2.4-25.7,10-31.5,22.7c-12.9,15-15.6,30.5-2.3,45.7c6.6,11.9,17.6,13.8,30.2,8.2c5.2,9.5,14.7,14.8,31,11.3
		c4.1,5.2,11.5,5.9,16.1,6l13.8,15.4c0.9,1,2.1,1.5,3.4,1.5h9.7c2.6,0,4.7-2.1,4.7-4.7c0-0.4,0-0.7-0.1-1.1l-1.3-5.3
		c23.3-4.9,35.8-25.8,25.5-38C152.3,124.7,150.2,110.7,139.4,100.1L139.4,100.1z M132.8,133.1c-1.9,1.7-2.1,4.7-0.4,6.6
		c0.3,0.4,0.7,0.7,1.1,0.9c10,6-2.4,23.2-22.4,25.2c-2.6,0.3-4.4,2.5-4.2,5.1c0,0.2,0.1,0.4,0.1,0.6l1.1,4.5h-1.8l-13.8-15.4
		c-0.9-1-2.1-1.5-3.4-1.5c-3.7,0-10.2,0-11.4-3.5c-0.8-2.3-3.3-3.7-5.6-3c-9.8,2.7-19,3.2-23.9-5.7c7.4-4.9,10.5-12.3,7.9-19.2
		c-0.9-2.4-3.6-3.6-6-2.7c-2.4,0.9-3.6,3.6-2.7,6c1.5,4-3.3,7.6-6.4,9.3c-0.7,0.4-10.8,6.2-16.5,4.2c-2.6-1-6.1-5.6-7.4-7.3
		c-6.1-6.9-8.6-14.1-5.2-22.6c3,7.9,10.5,13.1,18.9,13c2.6,0,4.7-2.1,4.7-4.7c0-2.6-2.1-4.7-4.7-4.7c-9,0-13.1-9.5-10.4-16.8
		c4.5-10.1,12.7-15.9,25-17.8c4.4,0.1,5.5,2.3,7.2,4.8c1.6,2,4.5,2.4,6.5,0.9c1.9-1.5,2.4-4.2,1.1-6.2c-0.9-1.4-1.9-2.8-3.1-4
		C67.1,75.4,78,74.3,88.7,76c-6.3,6.3-8.9,15-7.7,25.4c0.3,2.6,2.6,4.4,5.2,4.1c2.6-0.3,4.4-2.6,4.1-5.2l0,0
		c-1.1-9.8,1.9-16.5,9.4-21.1c5.3,2.2,10.3,5.1,14.8,8.6c-0.4,2.7-2.2,5.1-4.7,6.2c-2.3,1.2-3.2,4-2,6.3c1.2,2.3,4,3.2,6.3,2
		c3.5-1.7,6.3-4.5,8.1-8c3.7,3.6,7.1,7.5,10.2,11.7c0.9,1.2,7.4,6.5,7.3,14.5C139.2,125.5,136.7,130,132.8,133.1L132.8,133.1z"/>
	<path id="Path_7702" class="st0" d="M105.2,132.4c3.6-9.7,2.2-20.6-6.8-25.4c-2.3-1.2-5.1-0.3-6.3,1.9c-1.2,2.3-0.3,5.1,1.9,6.3
		c4.4,2.3,4.2,8.5,2.7,13.3c-10.2-3-19.2-0.2-23.2,7.3c-1.2,2.3-0.4,5.1,1.9,6.3c2.3,1.2,5.1,0.4,6.3-1.9c5-9.3,27.1,1.1,25.5,10.2
		c-0.5,2.5,1.2,5,3.7,5.4c2.5,0.5,5-1.2,5.4-3.7c0,0,0-0.1,0-0.1C117.7,144.2,112.4,137,105.2,132.4z"/>
	<path id="Path_7703" class="st0" d="M77.9,118.2c2.3-1.1,3.4-3.8,2.3-6.2c-1.1-2.3-3.8-3.4-6.2-2.3c-1.9,0.9-4.3-0.9-6-3.4
		c2.4-3.1,3.1-7.2,1.9-11c-0.8-2.5-3.4-3.8-5.8-3c-2.5,0.8-3.8,3.4-3,5.8c0.9,2.9-3.7,5.4-4.2,5.6c-4,2-8.3,1.8-9.4,0.3
		c-1.5-2.1-4.4-2.5-6.5-1c-2.1,1.5-2.5,4.4-1,6.5c4.6,6.3,13.9,6.1,20.9,2.6C65.1,118,71.6,121.1,77.9,118.2z"/>
	<path id="Path_7704" class="st0" d="M125.8,115l-7.4,1.4c-2.5,0.5-4.2,2.9-3.8,5.4c0.5,2.5,2.9,4.2,5.4,3.8c0,0,0.1,0,0.1,0
		l7.4-1.4c2.5-0.5,4.2-2.9,3.8-5.4c-0.5-2.5-2.9-4.2-5.4-3.8C125.9,115,125.9,115,125.8,115z"/>
</g>
</svg>
