<?xml version="1.0" encoding="utf-8"?>
<!-- Generator: Adobe Illustrator 25.4.1, SVG Export Plug-In . SVG Version: 6.00 Build 0)  -->
<svg version="1.1" id="Layer_1" xmlns="http://www.w3.org/2000/svg" xmlns:xlink="http://www.w3.org/1999/xlink" x="0px" y="0px"
	 viewBox="0 0 300 22" style="enable-background:new 0 0 300 22;" xml:space="preserve">
<style type="text/css">
	.st0{fill:#231F20;}
</style>
<g>
	<g id="Grupo_4723" transform="translate(-713.003 -1255.996)">
		<g id="Grupo_454" transform="translate(713.003 1262.037)">
			<path id="Caminho_182" class="st0" d="M14.4,10.6l1.9-11.1h3l-1.9,11.1H14.4z M28.4-0.3c-0.9-0.3-1.8-0.5-2.7-0.5
				c-3,0-5.1,1.5-5.1,3.7c0,1.6,1.5,2.5,2.7,3c1.2,0.5,1.6,0.9,1.6,1.4c0,0.7-0.9,1.1-1.8,1.1c-1,0-2-0.2-2.9-0.6l-0.4-0.2l-0.4,2.5
				c1.1,0.4,2.2,0.6,3.4,0.6c3.2,0,5.3-1.5,5.3-3.8c0-1.3-0.8-2.2-2.5-3c-1.1-0.5-1.7-0.9-1.7-1.4c0-0.5,0.6-1,1.7-1
				c0.8,0,1.6,0.1,2.3,0.4L28,2.1L28.4-0.3 M36.2-0.6h-2.3c-0.7-0.1-1.3,0.3-1.6,0.9l-4.5,10.2h3.2c0,0,0.5-1.4,0.6-1.7l3.9,0
				c0.1,0.4,0.4,1.7,0.4,1.7h2.8L36.2-0.6L36.2-0.6z M32.5,6.6c0.3-0.6,1.2-3.1,1.2-3.1c0,0,0.2-0.6,0.4-1.1l0.2,1L35,6.6L32.5,6.6z
				 M11.8-0.6L8.8,7L8.5,5.5c-0.8-2-2.3-3.7-4.2-4.7L7,10.6h3.2L15-0.6L11.8-0.6"/>
			<path id="Caminho_183" class="st0" d="M6-1.3H1.2l0,0.2c3.8,0.9,6.3,3.2,7.4,5.8L7.4-0.4C7.3-1,6.7-1.4,6-1.3"/>
		</g>
		<g id="Grupo_455" transform="translate(800.397 1255.996)">
			<path id="Caminho_184" class="st0" d="M-26.2,12.7c0-0.4,0.1-0.7,0.1-1.1c0.1-0.4,0.5-2.8,0.5-2.8h0.7c0.4-2,1.4-3.8,2.9-5.3
				c-1.7-1.5-3.9-2.3-6.2-2.3c-5.3,0-9.6,4.3-9.6,9.6c0,5.3,4.3,9.6,9.6,9.6c2.3,0,4.5-0.8,6.2-2.3c-1.3-1.3-2.3-3-2.8-4.8
				c-0.2,0.1-0.4,0.1-0.6,0.1c-0.2,0-0.5-0.1-0.6-0.2C-26.2,13.2-26.3,13-26.2,12.7z M-33.8,13.6l0.6-3.8l-1.4,3.8h-0.7l-0.1-3.8
				l-0.6,3.8h-1l0.8-5h1.5l0,3.1l1-3.1h1.6l-0.8,5H-33.8z M-30.2,13.6l0-0.4c-0.3,0.3-0.7,0.5-1.1,0.5c-0.3,0-0.5-0.1-0.7-0.3
				c-0.2-0.2-0.3-0.5-0.2-0.8c0-1,0.7-1.6,1.9-1.6c0.1,0,0.3,0,0.4,0c0-0.1,0-0.2,0-0.3c0-0.3-0.2-0.4-0.7-0.4
				c-0.4,0-0.8,0.1-1.1,0.2c0-0.1,0.1-0.9,0.1-0.9c0.4-0.1,0.8-0.2,1.3-0.2c0.9,0,1.4,0.4,1.4,1.2c0,0.3,0,0.5-0.1,0.8
				c-0.1,0.6-0.3,1.8-0.3,2.1L-30.2,13.6z M-27.1,11.2c0.5,0.2,0.8,0.6,0.7,1.1c0,0.9-0.5,1.3-1.6,1.3c-0.4,0-0.7,0-1.1-0.1
				c0,0,0.1-0.9,0.1-0.9c0.3,0.1,0.6,0.2,1,0.2c0.4,0,0.6-0.1,0.6-0.4c0-0.2-0.1-0.2-0.5-0.4c-0.5-0.2-0.8-0.6-0.8-1.1
				c0-0.7,0.4-1.4,1.6-1.4c0.3,0,0.6,0,0.9,0.1l-0.2,0.9c-0.3,0-0.5-0.1-0.8-0.1c-0.3,0-0.5,0.1-0.5,0.3
				C-27.6,10.9-27.6,11-27.1,11.2L-27.1,11.2z"/>
			<path id="Caminho_185" class="st0" d="M-31.3,12.4c0,0.1,0,0.2,0.1,0.3c0.1,0.1,0.2,0.1,0.3,0.1c0.4,0,0.7-0.4,0.8-1
				c-0.1,0-0.2,0-0.2,0C-31,11.8-31.3,12-31.3,12.4z"/>
			<path id="Caminho_186" class="st0" d="M-13.6,11.8c-0.6,0-0.9,0.2-0.9,0.6c0,0.1,0,0.2,0.1,0.3c0.1,0.1,0.2,0.1,0.3,0.1
				c0.4,0,0.7-0.4,0.8-1C-13.5,11.8-13.6,11.8-13.6,11.8z"/>
			<path id="Caminho_187" class="st0" d="M-14.9,1.4c-2.3,0-4.5,0.8-6.2,2.3c1.6,1.6,2.7,3.6,3,5.8c0.4-0.6,1.1-1,1.8-1
				c0.4,0,0.8,0.1,1.2,0.3l-0.2,1.1c-0.3-0.2-0.6-0.3-0.9-0.3c-0.8,0-1.3,0.8-1.3,1.9c0,0.8,0.4,1.2,1,1.2c0.3,0,0.6-0.1,0.9-0.3
				l-0.2,1.1c-0.3,0.1-0.6,0.1-0.9,0.1c-0.5,0-1.1-0.2-1.4-0.6c-0.4,2-1.4,3.9-2.9,5.3c1.7,1.5,3.9,2.3,6.2,2.3
				c5.3,0,9.6-4.3,9.6-9.6C-5.3,5.7-9.6,1.4-14.9,1.4z M-12.6,13.6h-0.9l0-0.4c-0.3,0.3-0.7,0.5-1.1,0.5c-0.3,0-0.5-0.1-0.7-0.3
				c-0.2-0.2-0.3-0.5-0.2-0.8c0-1,0.7-1.6,1.9-1.6c0.1,0,0.3,0,0.4,0c0-0.1,0-0.2,0-0.3c0-0.3-0.2-0.4-0.7-0.4
				c-0.4,0-0.8,0.1-1.1,0.2l0.1-0.9c0.4-0.1,0.8-0.2,1.3-0.2c0.9,0,1.4,0.4,1.4,1.2c0,0.3,0,0.5-0.1,0.8
				C-12.4,12-12.6,13.3-12.6,13.6L-12.6,13.6z M-11.2,13.6h-1.1l0-0.3c0.2-1.2,0.4-2.5,0.6-3.8h1c0,0.2,0,0.4-0.1,0.6
				c0.3-0.5,0.6-0.7,1-0.6c-0.2,0.4-0.3,0.8-0.4,1.2C-10.7,10.6-10.8,11.1-11.2,13.6L-11.2,13.6z M-8,13.6l0-0.4
				c-0.2,0.3-0.6,0.5-1,0.4c-0.8,0-1.3-0.7-1.3-1.7c0-1.3,0.8-2.5,1.7-2.5c0.4,0,0.8,0.2,1,0.6l0.2-1.4h1l-0.8,5L-8,13.6z"/>
			<path id="Caminho_188" class="st0" d="M-8.3,10.5c-0.5,0-0.8,0.6-0.8,1.4c0,0.5,0.2,0.8,0.5,0.8c0.5,0,0.8-0.6,0.8-1.4
				C-7.7,10.8-7.9,10.5-8.3,10.5z"/>
			<path id="Caminho_189" class="st0" d="M-22.5,10.4c-0.3,0-0.6,0.3-0.7,0.7h1.2C-22,11-21.9,10.4-22.5,10.4z"/>
			<path id="Caminho_190" class="st0" d="M-18.6,10.9c0-0.3,0-0.6-0.1-0.9c-0.1,0.2-0.2,0.5-0.2,0.7c-0.6-0.1-0.7,0.4-1.1,2.9H-21
				l0-0.3c0.2-1.2,0.4-2.5,0.6-3.8h1c0,0.2,0,0.4-0.1,0.6c0.3-0.4,0.5-0.6,0.8-0.6c-0.3-2.1-1.3-4-2.8-5.4c-1.5,1.5-2.5,3.4-2.8,5.5
				h0.3l-0.1,1h-0.2c0,0.2,0,0.3,0,0.5c0,2.6,1.1,5.1,3,6.9c1.7-1.6,2.7-3.8,2.9-6.2c0-0.1,0-0.2,0-0.3
				C-18.7,11.3-18.7,11.1-18.6,10.9L-18.6,10.9z M-22.3,12.7c0.4,0,0.8-0.1,1.1-0.3l-0.2,1c-0.4,0.1-0.7,0.2-1.1,0.2
				c-0.5,0.1-1-0.1-1.3-0.5c-0.4-0.4-0.5-0.8-0.5-1.3c0-1.4,0.8-2.4,1.8-2.4c0.4,0,0.8,0.1,1,0.4c0.3,0.3,0.4,0.7,0.4,1.1
				c0,0.3,0,0.7-0.1,1h-2.1C-23.3,12.5-22.9,12.7-22.3,12.7L-22.3,12.7z"/>
		</g>
		<path id="Caminho_191" class="st0" d="M905.9,1263.5h0.1l0.1,0l0.1,0l0.1-0.1l0.1-0.1l0.1-0.1l0.1-0.1v-0.4l0-0.1l0-0.1l-0.1-0.1
			l-0.1-0.1H906l-0.1,0.1l-0.1,0.1l-0.1,0.1l-0.1,0.1l-0.1,0.1l-0.1,0.1l0,0.2l0,0.2l0.1,0.1l0.1,0.1l0.1,0l0.1,0L905.9,1263.5z
			 M929.5,1269.5h0.5v-0.3l0.1-0.4c0-0.2,0.1-0.6,0.1-0.8s0.1-0.5,0.1-0.6c0-0.1,0.1-0.4,0.1-0.5c0-0.2,0.1-0.4,0.1-0.4
			c0,0,0-0.1,0-0.1c0-0.1,0.1-0.2,0.1-0.2l0.1-0.2l0.1-0.2l0.1-0.2l0.1-0.1c0.1-0.1,0.2-0.1,0.3-0.2l0.1-0.1h0.6l0.1,0l0.1,0l0,0
			l0,0v-0.1c0-0.1,0-0.2,0.1-0.4l0.1-0.3l-0.1,0c-0.1,0-0.1,0-0.2-0.1l-0.1,0h-0.4l-0.2,0.1l-0.2,0.1l-0.1,0.1l-0.1,0.1l-0.2,0.2
			l-0.2,0.2l-0.1,0.1c0,0-0.1,0.1-0.1,0.1c0,0,0-0.2,0.1-0.4c0-0.2,0.1-0.4,0.1-0.4v-0.1h-0.9v0c0,0,0,0.2-0.1,0.3
			c0,0.2-0.1,0.5-0.1,0.8c0,0.3-0.1,0.6-0.1,0.9c0,0.3-0.1,0.5-0.1,0.8c0,0.2-0.1,0.5-0.1,0.7s-0.1,0.5-0.1,0.7l-0.1,0.6l0,0.2
			L929.5,1269.5z M917.2,1269.5h0.5l0-0.2c0-0.1,0-0.4,0.1-0.5s0.1-0.5,0.1-0.8c0.1-0.3,0.1-0.6,0.2-0.9c0.1-0.3,0.1-0.5,0.1-0.6
			c0,0,0-0.1,0-0.1c0-0.1,0.1-0.2,0.1-0.2c0.1-0.1,0.1-0.2,0.2-0.4l0.1-0.2l0.1-0.1l0.1-0.1l0.2-0.1l0.2-0.1h0.6l0.1,0
			c0.1,0,0.1,0,0.2,0c0,0,0,0,0-0.1s0-0.2,0.1-0.4s0.1-0.3,0.1-0.3c-0.1,0-0.1-0.1-0.2-0.1c-0.1,0-0.2-0.1-0.3-0.1l-0.1,0l-0.2,0
			c-0.1,0-0.2,0-0.3,0.1c-0.1,0-0.2,0.1-0.3,0.1c-0.1,0.1-0.2,0.1-0.3,0.2c-0.1,0.1-0.2,0.2-0.2,0.3l-0.2,0.2l0,0l0-0.1
			c0-0.1,0-0.2,0.1-0.4c0-0.2,0.1-0.3,0.1-0.3l0,0h-0.9v0.1c0,0,0,0.2-0.1,0.4c0,0.2-0.1,0.5-0.1,0.8c0,0.2-0.1,0.6-0.1,0.8
			c0,0.3-0.1,0.5-0.1,0.8c-0.1,0.5-0.2,1-0.3,1.5c0,0.2-0.1,0.5-0.1,0.5s0,0.2,0,0.2v0L917.2,1269.5z M904.9,1269.5h0.5l0,0
			c0,0,0-0.1,0-0.1c0,0,0-0.3,0.1-0.5c0.1-0.6,0.2-1.1,0.3-1.7c0-0.2,0.1-0.5,0.1-0.7c0-0.2,0.1-0.5,0.1-0.7c0-0.2,0.1-0.5,0.1-0.8
			s0.1-0.4,0.1-0.5l0,0l-0.5,0l-0.5,0l0,0.3c0,0.2-0.1,0.5-0.1,0.8c0,0.2-0.1,0.6-0.1,0.8c0,0.3-0.1,0.5-0.1,0.8
			c0,0.2-0.1,0.5-0.1,0.7c0,0.2-0.1,0.5-0.1,0.7c0,0.2-0.1,0.5-0.1,0.6c0,0.1-0.1,0.3-0.1,0.3l0,0.1L904.9,1269.5z M898.4,1269.5
			h0.6l0-0.3c0-0.1,0.1-0.4,0.1-0.6l0.1-0.8c0-0.2,0.1-0.6,0.1-0.8s0.1-0.5,0.1-0.7c0-0.1,0-0.2,0.1-0.3l0,0h3.2l0,0l0,0l0,0.1
			c0,0.1-0.1,0.3-0.1,0.5s-0.1,0.6-0.1,0.8c0,0.2-0.1,0.5-0.1,0.7c0,0.2-0.1,0.5-0.1,0.8c0,0.3-0.1,0.5-0.1,0.5v0h1.2l0-0.2
			c0-0.1,0-0.2,0.1-0.3c0-0.1,0-0.3,0.1-0.5c0-0.2,0.1-0.5,0.1-0.7s0.1-0.6,0.1-0.9c0-0.2,0.1-0.6,0.1-0.8c0-0.2,0.1-0.5,0.1-0.7
			c0-0.2,0.1-0.6,0.1-0.8c0-0.2,0.1-0.6,0.1-0.7c0-0.2,0.1-0.5,0.1-0.8c0-0.2,0.1-0.5,0.1-0.6l0-0.2h-1.2l0,0.1c0,0.1,0,0.2-0.1,0.4
			c0,0.2-0.1,0.4-0.1,0.6c0,0.2-0.1,0.5-0.1,0.8c0,0.2-0.1,0.5-0.1,0.7l0,0.3l-0.9,0l-0.9,0l-0.7,0c-0.4,0-0.7,0-0.7,0
			c0-0.1,0-0.1,0-0.2c0-0.1,0.1-0.3,0.1-0.4c0-0.2,0.1-0.4,0.1-0.6c0-0.2,0.1-0.4,0.1-0.5c0-0.1,0-0.2,0.1-0.3
			c0-0.1,0.1-0.3,0.1-0.5c0-0.2,0.1-0.3,0.1-0.3l0,0H899l0,0.2c0,0.1,0,0.3-0.1,0.4c0,0.1-0.1,0.4-0.1,0.6s-0.1,0.6-0.1,0.8
			l-0.1,0.8c0,0.3-0.1,0.6-0.1,0.9c0,0.2-0.1,0.5-0.1,0.7c0,0.2-0.1,0.5-0.1,0.7c0,0.2-0.1,0.5-0.1,0.7c0,0.2-0.1,0.3-0.1,0.4
			c0,0.1,0,0.3-0.1,0.4c0,0.2-0.1,0.3-0.1,0.3v0L898.4,1269.5L898.4,1269.5z M933.8,1269.6h0.2l0.2,0c0.1,0,0.3-0.1,0.3-0.1
			c0.1,0,0.2-0.1,0.3-0.1l0.1-0.1l0.1-0.1l0.1-0.1l0.1-0.2c0.1-0.1,0.1-0.1,0.1-0.2l0,0l0,0.1c0,0.1,0,0.2,0,0.2c0,0.1,0,0.2,0,0.3
			l0,0.2h1v-0.3l0.1-0.6c0-0.3,0.1-0.8,0.1-1c0-0.2,0.1-0.5,0.1-0.7c0-0.2,0.1-0.5,0.1-0.6s0.1-0.5,0.1-0.8c0-0.2,0.1-0.6,0.1-0.8
			c0-0.2,0.1-0.5,0.1-0.7s0.1-0.5,0.1-0.7c0-0.2,0.1-0.4,0.1-0.7c0-0.2,0.1-0.3,0.1-0.3v0h-1l0,0.2c0,0.1,0,0.4-0.1,0.6
			c0,0.3-0.1,0.6-0.1,0.9c0,0.2-0.1,0.3-0.1,0.5l0,0.1l0,0c0,0-0.1,0-0.3-0.1l-0.2-0.1l-0.3,0l-0.3,0l-0.3,0l-0.3,0l-0.2,0.1
			l-0.2,0.1l-0.2,0.1l-0.2,0.1l-0.2,0.1l-0.2,0.1l-0.1,0.2c-0.1,0.1-0.2,0.2-0.3,0.3l-0.1,0.2l-0.1,0.3c-0.1,0.2-0.2,0.4-0.2,0.4
			c0,0.1-0.1,0.3-0.1,0.5l-0.1,0.3l0,0.4l0,0.4l0,0.3l0,0.3l0,0.1c0,0.1,0.1,0.2,0.1,0.2l0.1,0.1l0.1,0.1l0.1,0.1l0.1,0.1l0.1,0.1
			l0.1,0.1c0.1,0,0.2,0.1,0.3,0.1c0.1,0,0.2,0,0.3,0.1C933.5,1269.6,933.7,1269.6,933.8,1269.6L933.8,1269.6z M934.2,1268.9l-0.2,0
			l-0.1,0c-0.1,0-0.2,0-0.2-0.1l-0.1-0.1l-0.1-0.1l-0.1-0.1l-0.1-0.3l0-0.2l0-0.2v-0.6l0-0.3l0-0.3l0.1-0.2c0-0.1,0-0.1,0.1-0.2
			c0-0.1,0-0.1,0.1-0.2c0-0.1,0.1-0.2,0.2-0.3c0.1-0.1,0.1-0.2,0.2-0.3c0.1-0.1,0.1-0.2,0.2-0.2c0.1-0.1,0.1-0.1,0.2-0.2l0.1-0.1
			l0.2-0.1l0.2-0.1h0.8l0.2,0.1c0.1,0,0.3,0.1,0.3,0.1l0.1,0l0,0.1c0,0,0,0.2-0.1,0.4c0,0.2-0.1,0.5-0.1,0.7c0,0.2-0.1,0.5-0.1,0.7
			s-0.1,0.4-0.1,0.5c0,0.1-0.1,0.2-0.1,0.3c0,0.1-0.1,0.2-0.1,0.3c0,0.1-0.1,0.2-0.1,0.3c0,0.1-0.1,0.1-0.2,0.2
			c-0.1,0.1-0.1,0.1-0.2,0.2l-0.1,0.1l-0.4,0.1L934.2,1268.9L934.2,1268.9z M925.6,1269.6l0.3,0l0.2-0.1l0.2-0.1l0.1-0.1
			c0.1,0,0.2-0.1,0.3-0.2c0.1-0.1,0.2-0.1,0.3-0.2c0.1-0.1,0.1-0.2,0.2-0.2c0,0,0.1-0.1,0.1-0.1c0,0.1,0,0.2,0,0.2
			c0,0.1,0,0.3,0,0.4v0.2h0.9l0-0.3l0-0.3l0.1-0.5c0-0.2,0.1-0.6,0.1-0.8c0-0.2,0.1-0.5,0.1-0.8s0.1-0.5,0.1-0.7l0.1-0.4v-0.6
			l-0.1-0.1l-0.1-0.1l-0.1-0.1l-0.1-0.1l-0.2-0.1l-0.2-0.1l-0.5-0.1l-0.3,0l-0.3,0l-0.4,0c-0.2,0-0.5,0-0.7,0.1l-0.3,0h-0.4l0,0.1
			c0,0.1-0.1,0.3-0.1,0.4c0,0.1,0,0.2-0.1,0.3c0.1,0,0.2,0,0.2-0.1c0.1,0,0.4-0.1,0.6-0.1l0.4-0.1l0.3,0l0.3,0l0.4,0.1l0.1,0.1
			l0.1,0.1l0.1,0.1l0.1,0.1v0.4l0,0.2l0,0.2h-1.8l-0.3,0.1c-0.1,0-0.3,0.1-0.4,0.1c0,0-0.1,0-0.1,0c-0.1,0-0.1,0.1-0.2,0.1l-0.2,0.1
			l-0.1,0.1c-0.1,0.1-0.2,0.2-0.2,0.3c-0.1,0.1-0.1,0.2-0.2,0.3l-0.1,0.2l0,0.2l0,0.2v0.4l0,0.2l0,0.2l0.1,0.1
			c0,0.1,0.1,0.1,0.1,0.2l0.1,0.1l0.1,0.1l0.1,0.1l0.2,0c0.1,0,0.2,0.1,0.3,0.1l0.1,0L925.6,1269.6L925.6,1269.6z M925.9,1268.9
			l-0.2,0l-0.1,0c-0.1,0-0.2-0.1-0.2-0.1l-0.1-0.1l-0.1-0.1c0-0.1-0.1-0.1-0.1-0.2l-0.1-0.1l0-0.2l0-0.2l0-0.1
			c0-0.1,0.1-0.2,0.1-0.3l0.1-0.2l0.1-0.1l0.1-0.1l0.2-0.1l0.2-0.1l0.2,0l0.2,0h1.2l0,0l0,0l0,0.2c0,0.1-0.1,0.3-0.1,0.4
			c0,0.1-0.1,0.3-0.1,0.4c0,0.1-0.1,0.2-0.1,0.2c0,0.1-0.1,0.1-0.1,0.2l-0.1,0.1l-0.1,0.1c0,0.1-0.1,0.1-0.2,0.1c0,0-0.1,0-0.1,0.1
			l-0.1,0.1l-0.2,0.1l-0.2,0.1L925.9,1268.9L925.9,1268.9z M921.6,1269.6h0.3l0.3,0c0.2,0,0.4-0.1,0.5-0.1c0.1,0,0.3-0.1,0.4-0.1
			c0.1,0,0.1,0,0.2-0.1c0-0.1,0.1-0.2,0.1-0.2c0-0.1,0.1-0.3,0.1-0.4c0-0.1,0-0.1,0-0.2c0,0,0,0,0,0c-0.1,0-0.2,0.1-0.3,0.1
			l-0.2,0.1l-0.3,0.1l-0.3,0.1l-0.3,0l-0.3,0l-0.2-0.1l-0.2-0.1l-0.1-0.1l-0.1-0.1l-0.1-0.2l-0.1-0.2l0-0.2l0-0.2v-0.5l0-0.3l0-0.3
			l0.1-0.2c0-0.1,0.1-0.2,0.1-0.2c0-0.1,0.1-0.2,0.1-0.3c0-0.1,0.1-0.3,0.2-0.3l0.1-0.2l0.1-0.1l0.1-0.1l0.1-0.1l0.1-0.1l0.2,0
			c0.1,0,0.2-0.1,0.3-0.1l0.2,0l0.3,0l0.3,0l0.3,0.1l0.3,0.1l0.1,0c0.1,0,0.1,0,0.1,0c0-0.1,0-0.1,0-0.2c0-0.1,0-0.3,0.1-0.4
			c0-0.1,0-0.1,0-0.2c-0.1,0-0.1,0-0.2,0c-0.1,0-0.4,0-0.7,0l-0.5,0l-0.3,0l-0.3,0l-0.2,0.1l-0.2,0.1l-0.2,0.1
			c-0.1,0-0.2,0.1-0.3,0.1c-0.1,0-0.1,0.1-0.2,0.1c-0.1,0.1-0.2,0.2-0.3,0.2l-0.2,0.2l-0.1,0.2c-0.1,0.1-0.2,0.3-0.2,0.4l-0.1,0.2
			l-0.1,0.3c0,0.1-0.1,0.4-0.2,0.5l-0.1,0.3l0,0.2l0,0.2v0.6l0,0.2l0,0.2l0.1,0.2l0.1,0.2l0.1,0.1l0.1,0.1l0.1,0.1l0.1,0.1l0.1,0.1
			l0.1,0.1l0.2,0.1c0.1,0,0.2,0.1,0.3,0.1C921.3,1269.6,921.4,1269.6,921.6,1269.6L921.6,1269.6z M913.8,1269.6h0.3l0.3,0
			c0.1,0,0.4,0,0.5-0.1c0.1,0,0.4-0.1,0.6-0.1l0.3-0.1l0-0.1c0-0.1,0-0.2,0.1-0.4l0.1-0.3l0,0l0,0l-0.1,0c-0.1,0-0.2,0.1-0.3,0.1
			l-0.3,0.1l-0.3,0.1l-0.3,0.1h-0.9l-0.1,0c-0.1,0-0.2-0.1-0.3-0.1l-0.1-0.1l-0.2-0.2l-0.1-0.1l-0.1-0.1l0-0.2l0-0.2v-0.6l0-0.3
			l0-0.3l0.7,0l1.4,0l1.4,0l0-0.2c0-0.1,0.1-0.3,0.1-0.4l0-0.3v-0.4l0-0.2l0-0.2l-0.1-0.1c0-0.1-0.1-0.1-0.1-0.2
			c0-0.1-0.1-0.1-0.2-0.1c0,0-0.1-0.1-0.2-0.1l-0.1-0.1l-0.2-0.1l-0.2-0.1l-0.3,0l-0.3,0l-0.2,0l-0.2,0l-0.3,0.1l-0.3,0.1l-0.2,0.1
			c-0.1,0-0.2,0.1-0.3,0.2c-0.1,0.1-0.2,0.1-0.3,0.2c-0.1,0-0.2,0.1-0.2,0.2c-0.1,0.1-0.2,0.2-0.2,0.3c-0.1,0.1-0.1,0.2-0.2,0.3
			c0,0.1-0.1,0.2-0.1,0.3c0,0.1-0.1,0.2-0.1,0.3s-0.1,0.3-0.1,0.4c0,0.2-0.1,0.3-0.1,0.5l0,0.2v0.7l0,0.2c0,0.1,0.1,0.2,0.1,0.3
			c0,0.1,0.1,0.2,0.1,0.2c0,0.1,0.1,0.1,0.2,0.2c0.1,0.1,0.1,0.1,0.2,0.2c0.1,0.1,0.2,0.1,0.3,0.2l0.1,0.1l0.2,0
			c0.1,0,0.3,0.1,0.4,0.1C913.5,1269.6,913.7,1269.6,913.8,1269.6L913.8,1269.6z M914.3,1266.2c-0.7,0-1.2,0-1.2,0s0-0.1,0.1-0.2
			c0-0.1,0.1-0.2,0.1-0.3l0.1-0.1l0.2-0.2l0.2-0.2l0.2-0.1c0.1,0,0.2-0.1,0.3-0.1c0.1,0,0.2,0,0.3,0l0.2,0l0.2,0l0.2,0l0.1,0.1
			l0.1,0.1l0.1,0.1c0,0,0.1,0.1,0.1,0.1l0,0.1l0,0.1l0,0.1l0,0.2l0,0.2L914.3,1266.2z M907,1271.7L907,1271.7c0-0.1,0-0.1,0-0.1
			c0,0,0-0.2,0-0.3c0-0.1,0.1-0.5,0.1-0.7s0.1-0.6,0.1-0.8c0-0.2,0.1-0.4,0.1-0.6c0-0.1,0-0.1,0-0.2c0,0,0.1,0.1,0.1,0.1l0.1,0.1
			l0.1,0.1l0.1,0.1l0.2,0.1l0.2,0.1l0.2,0l0.2,0l0.3,0l0.3,0l0.3-0.1l0.3-0.1l0.1-0.1c0.1-0.1,0.2-0.1,0.3-0.2l0.2-0.1l0.2-0.2
			c0.1-0.1,0.2-0.2,0.3-0.3c0-0.1,0.1-0.1,0.1-0.2c0,0,0-0.1,0.1-0.1c0.1-0.1,0.1-0.2,0.2-0.3c0.1-0.1,0.1-0.4,0.2-0.5l0.1-0.3
			l0-0.3c0-0.1,0.1-0.4,0.1-0.5l0-0.3l0-0.2l0-0.2l-0.1-0.2l-0.1-0.2l-0.1-0.2l-0.1-0.2l-0.2-0.2l-0.2-0.2l-0.4-0.2l-0.2,0l-0.2,0
			l-0.2,0l-0.2,0l-0.2,0l-0.2,0l-0.2,0l-0.2,0l-0.2,0.1c-0.1,0-0.2,0.1-0.3,0.2c-0.1,0-0.1,0.1-0.2,0.1c0,0-0.1,0.1-0.1,0.1l-0.1,0
			l0-0.2c0-0.1,0-0.2,0-0.2v0h-0.9l-0.1,0.5c0,0.3-0.1,0.7-0.2,0.9c-0.1,0.5-0.2,1.1-0.3,1.6c0,0.2-0.1,0.6-0.1,0.8
			c0,0.2-0.1,0.5-0.1,0.7s-0.1,0.5-0.1,0.7c0,0.3-0.1,0.5-0.1,0.8c0,0.3-0.1,0.5-0.1,0.8c0,0.2-0.1,0.4-0.1,0.4l0,0.1L907,1271.7
			L907,1271.7z M908.6,1268.9l-0.1,0l-0.1,0l-0.1-0.1l-0.1-0.1l-0.1-0.1l-0.1-0.1l-0.1-0.1c0-0.1-0.1-0.2-0.1-0.3l0-0.1l0-0.2l0-0.2
			l0.1-0.3c0-0.3,0.1-0.5,0.1-0.8c0-0.2,0.1-0.6,0.1-0.8l0.1-0.3l0.1-0.1c0.1-0.1,0.2-0.1,0.3-0.2l0.1-0.1l0.2-0.1l0.2-0.1l0.4,0
			l0.2,0l0.2,0l0.1,0.1l0.1,0.1l0.1,0.1l0.1,0.1l0.1,0.1c0,0.1,0.1,0.2,0.1,0.3l0,0.2l0,0.5l0,0.5l-0.1,0.3c0,0.2-0.1,0.4-0.1,0.5
			l-0.1,0.2l-0.1,0.2c-0.1,0.1-0.1,0.2-0.2,0.3c-0.1,0.1-0.1,0.1-0.2,0.2c-0.1,0-0.1,0.1-0.2,0.1l-0.1,0.1l-0.4,0.1L908.6,1268.9
			L908.6,1268.9z"/>
		<g id="Grupo_456" transform="translate(937.447 1257.43)">
			<path id="Caminho_195" class="st0" d="M-69.6,13c-0.6,0.6-1.4,0.9-2.3,0.9c-0.6,0-1.1-0.2-1.6-0.5l-1.2,1.9
				c0.8,0.5,1.8,0.8,2.8,0.8c1.4,0,2.8-0.5,3.8-1.5L-69.6,13L-69.6,13z M-71.8,5.4c-3,0-5.4,2.3-5.5,5.3c0,1.1,0.3,2.1,0.9,3
				l9.8-4.2C-67.2,7.1-69.3,5.4-71.8,5.4 M-75,11.1c0-0.1,0-0.3,0-0.4c0-1.8,1.5-3.1,3.2-3.1c0.9,0,1.8,0.4,2.4,1.1L-75,11.1z
				 M-63.6,3v10.4l1.8,0.8l-0.9,2.1l-1.8-0.7c-0.4-0.2-0.7-0.4-0.9-0.7c-0.2-0.4-0.4-0.8-0.3-1.3V3L-63.6,3z M-57.1,7.8
				c0.3-0.1,0.7-0.2,1-0.2c1.5,0,2.8,1.1,3.1,2.5l2.2-0.4c-0.5-2.5-2.7-4.3-5.3-4.3c-0.6,0-1.2,0.1-1.7,0.3L-57.1,7.8L-57.1,7.8z
				 M-59.6,14.8l1.5-1.7c-0.7-0.6-1.1-1.5-1.1-2.4c0-0.9,0.4-1.8,1.1-2.4l-1.5-1.7c-1.2,1-1.8,2.5-1.8,4
				C-61.4,12.3-60.8,13.8-59.6,14.8L-59.6,14.8z M-52.9,11.4c-0.3,1.5-1.6,2.5-3.1,2.5c-0.3,0-0.7-0.1-1-0.2l-0.7,2.1
				c0.6,0.2,1.1,0.3,1.7,0.3c2.6,0,4.8-1.8,5.3-4.3L-52.9,11.4L-52.9,11.4z"/>
		</g>
		<g id="Grupo_458" transform="translate(879.21 1259.764)">
			<path id="Caminho_199" class="st0" d="M-41.4,1.5l-0.8,1.9h1.7L-41.4,1.5z M-50.9,2.6c0.2-0.1,0.3-0.3,0.2-0.5
				c0-0.2-0.1-0.4-0.3-0.4c-0.2-0.1-0.4-0.1-0.6-0.1H-53v1.1h1.5C-51.3,2.8-51.1,2.7-50.9,2.6L-50.9,2.6z M-70,1.5l-0.8,1.9h1.6
				L-70,1.5z M-31.8,13.8h-2.3v-1h2.3c0.2,0,0.3,0,0.5-0.1c0.1-0.1,0.1-0.2,0.1-0.3c0-0.1-0.1-0.2-0.1-0.3c-0.1-0.1-0.3-0.1-0.4-0.1
				c-1.1,0-2.5,0-2.5-1.5c0-0.7,0.5-1.4,1.7-1.4h2.4V8h-2.2c-0.5,0-1.1,0.1-1.5,0.4V8h-3.3c-0.5,0-1,0.1-1.4,0.4V8h-5.9v0.4
				C-45,8.1-45.6,8-46.1,8H-50v0.4C-50.5,8.1-51.1,8-51.7,8h-4.4l-1,1L-58,8h-6.5v6.7h6.4l1-1l1,1h3.9v-1.6h0.4c0.6,0,1.1,0,1.7-0.2
				v1.8h3.2V13h0.2c0.2,0,0.2,0,0.2,0.2v1.6h9.9c0.6,0,1.1-0.1,1.6-0.4v0.4h3.1c0.6,0,1.2-0.1,1.8-0.3v-1.3
				C-30.5,13.6-31.1,13.9-31.8,13.8L-31.8,13.8z M-51.8,12.2h-1.5v1.6h-2.3l-1.5-1.6l-1.5,1.6h-4.8V9h4.9l1.5,1.6l1.5-1.6h3.9
				c1,0,2,0.3,2,1.6S-50.7,12.2-51.8,12.2L-51.8,12.2z M-44.5,12c0.2,0.3,0.2,0.6,0.2,0.9v1h-1.2v-0.6c0-0.3,0-0.7-0.2-0.9
				c-0.3-0.2-0.6-0.3-0.9-0.2h-1.3v1.8h-1.2V9h2.8c0.5,0,1,0,1.5,0.2c0.4,0.2,0.6,0.6,0.6,1.1c0,0.6-0.3,1.1-0.9,1.3
				C-44.9,11.7-44.7,11.8-44.5,12L-44.5,12z M-39.5,10h-2.8v0.9h2.8v1h-2.8v1l2.8,0v1h-4V9h4L-39.5,10z M-36.4,13.8h-2.3v-1h2.3
				c0.2,0,0.3,0,0.5-0.1c0.1-0.1,0.1-0.2,0.1-0.3c0-0.1-0.1-0.2-0.1-0.3c-0.1-0.1-0.3-0.1-0.4-0.1c-1.1,0-2.5,0-2.5-1.5
				c0-0.7,0.5-1.4,1.7-1.4h2.4v1H-37c-0.2,0-0.3,0-0.5,0.1c-0.1,0.1-0.2,0.2-0.2,0.3c0,0.2,0.1,0.3,0.3,0.4c0.2,0,0.3,0.1,0.5,0.1
				l0.6,0c0.5,0,1,0.1,1.4,0.4c0.3,0.3,0.4,0.6,0.4,1C-34.5,13.3-35.2,13.8-36.4,13.8L-36.4,13.8z M-45.8,10.1
				C-46,10-46.2,10-46.4,10h-1.5v1.1h1.5c0.2,0,0.4,0,0.6-0.1c0.2-0.1,0.3-0.3,0.3-0.5C-45.5,10.3-45.6,10.1-45.8,10.1L-45.8,10.1z
				 M-32.3,10c-0.2,0-0.3,0-0.5,0.1c-0.1,0.1-0.2,0.2-0.2,0.3c0,0.2,0.1,0.3,0.3,0.4c0.2,0,0.3,0.1,0.5,0.1l0.7,0
				c0.5,0,1,0.1,1.4,0.4c0,0,0.1,0.1,0.1,0.1V10L-32.3,10L-32.3,10z M-51.7,10h-1.6v1.2h1.6c0.5,0,0.8-0.2,0.8-0.6S-51.3,10-51.7,10
				L-51.7,10z M-62.2,10v0.9h2.6v1h-2.6v1h3l1.4-1.4l-1.3-1.4L-62.2,10z M-54.5,13.4V9.5l-1.9,1.9L-54.5,13.4L-54.5,13.4z
				 M-62.1,5.6v0.8H-52l0-1.8h0.2c0.1,0,0.2,0,0.2,0.2v1.5h5.2V6c0.6,0.3,1.3,0.4,1.9,0.4h2.2l0.5-1.1h1l0.5,1.1h4.2v-1l0.6,1h3.4
				v-6.7h-3.4v0.8l-0.5-0.8h-3.4v0.8l-0.4-0.8h-4.6c-0.7,0-1.4,0.1-2,0.4v-0.4h-3.2v0.4C-50-0.2-50.5-0.3-51-0.3h-11.7l-0.8,1.7
				l-0.8-1.7H-68v0.8l-0.4-0.8h-3.1L-73,2.9v2.6l2.2-4.8h1.8l2,4.6V0.6h2l1.6,3.3l1.5-3.3h2v4.8h-1.2l0-3.8L-63,5.5h-1.1l-1.8-3.8
				v3.8h-2.5l-0.5-1.1h-2.5l-0.5,1.1H-73v1h2.1l0.5-1.1h1l0.5,1.1h4.1V5.6l0.4,0.8h2.1L-62.1,5.6L-62.1,5.6z M-46.2,1.2
				c0.5-0.4,1.2-0.6,1.8-0.6h1.2v1h-1.1c-0.3,0-0.7,0.1-0.9,0.3c-0.3,0.3-0.4,0.7-0.3,1.1c0,0.4,0.1,0.8,0.3,1.1
				c0.2,0.2,0.5,0.3,0.8,0.2h0.5l1.7-3.8h1.8l2,4.6V0.6h1.8l2.1,3.4V0.6h1.2v4.8h-1.7l-2.3-3.6v3.6h-2.5l-0.5-1.1h-2.5l-0.5,1.1
				h-1.4c-0.6,0-1.2-0.2-1.7-0.5c-0.5-0.5-0.7-1.2-0.6-1.8C-46.9,2.4-46.7,1.7-46.2,1.2L-46.2,1.2z M-48.7,0.6h1.2v4.8h-1.2
				L-48.7,0.6z M-54.3,0.6h2.8c0.5,0,1,0,1.5,0.2c0.4,0.2,0.6,0.6,0.6,1.1c0,0.6-0.3,1.1-0.9,1.3c0.2,0.1,0.4,0.2,0.6,0.4
				c0.2,0.3,0.2,0.6,0.2,0.9v0.9h-1.2l0-0.6c0-0.3,0-0.7-0.2-0.9c-0.3-0.2-0.6-0.3-0.9-0.2H-53v1.8h-1.2L-54.3,0.6L-54.3,0.6z
				 M-59.1,0.6h4v1h-2.8v0.9h2.8v1h-2.8v1h2.8v1h-4V0.6z"/>
		</g>
	</g>
	<g id="Group_428" transform="translate(0 0)">
		<path id="Path_939" class="st0" d="M294.6,16.2c-0.8,0-1.5-0.3-2-0.8l-2.9-2.9c-0.2-0.2-0.6-0.2-0.8,0l-3,3
			c-0.5,0.5-1.3,0.8-2,0.8h-0.6l3.7,3.7c1.2,1.2,3,1.2,4.2,0l3.7-3.7L294.6,16.2z"/>
		<path id="Path_940" class="st0" d="M283.8,5.8c0.8,0,1.5,0.3,2,0.8l3,3c0.2,0.2,0.6,0.2,0.8,0l2.9-2.9c0.5-0.5,1.3-0.8,2-0.8h0.4
			l-3.7-3.7c-1.2-1.2-3-1.2-4.2,0c0,0,0,0,0,0l-3.7,3.7H283.8z"/>
		<path id="Path_941" class="st0" d="M298,8.9l-2.3-2.3c-0.1,0-0.1,0-0.2,0h-1c-0.5,0-1,0.2-1.4,0.6l-2.9,2.9c-0.6,0.6-1.4,0.6-2,0
			l-3-3c-0.4-0.4-0.9-0.6-1.4-0.6h-1.3c-0.1,0-0.1,0-0.2,0l-2.3,2.3c-1.2,1.2-1.2,3,0,4.2l2.3,2.3c0,0,0.1,0,0.2,0h1.3
			c0.5,0,1-0.2,1.4-0.6l3-3c0.6-0.5,1.4-0.5,2,0l2.9,2.9c0.4,0.4,0.9,0.6,1.4,0.6h1c0.1,0,0.1,0,0.2,0l2.3-2.3
			C299.2,11.9,299.2,10,298,8.9C298,8.9,298,8.9,298,8.9"/>
	</g>
	<rect id="Rectangle_224" x="241.3" y="1.7" class="st0" width="2.3" height="18.5"/>
	<rect id="Rectangle_225" x="238.8" y="1.7" class="st0" width="1" height="18.5"/>
	<rect id="Rectangle_226" x="236" y="1.7" class="st0" width="2.4" height="18.5"/>
	<rect id="Rectangle_227" x="244.7" y="1.7" class="st0" width="0.5" height="18.5"/>
	<rect id="Rectangle_228" x="255.7" y="1.7" class="st0" width="0.5" height="18.5"/>
	<rect id="Rectangle_229" x="258.2" y="1.7" class="st0" width="0.5" height="18.5"/>
	<rect id="Rectangle_230" x="259.3" y="1.7" class="st0" width="2.1" height="18.5"/>
	<rect id="Rectangle_231" x="262.4" y="1.7" class="st0" width="1" height="18.5"/>
	<rect id="Rectangle_232" x="263.9" y="1.7" class="st0" width="2.2" height="18.5"/>
	<rect id="Rectangle_233" x="245.9" y="1.7" class="st0" width="1" height="18.5"/>
	<rect id="Rectangle_234" x="251.5" y="1.7" class="st0" width="1" height="18.5"/>
	<rect id="Rectangle_235" x="253.4" y="1.7" class="st0" width="1" height="18.5"/>
	<rect id="Rectangle_236" x="248.5" y="1.7" class="st0" width="2.2" height="18.5"/>
</g>
</svg>
